<?xml version="1.0" encoding="UTF-8" standalone="no"?>
<!-- Created with Inkscape (http://www.inkscape.org/) -->

<svg
   version="1.1"
   id="svg1"
   width="975.96783"
   height="1048.118"
   viewBox="0 0 975.96783 1048.118"
   sodipodi:docname="3.2.png"
   inkscape:export-filename="3.3.svg"
   inkscape:export-xdpi="96"
   inkscape:export-ydpi="96"
   xmlns:inkscape="http://www.inkscape.org/namespaces/inkscape"
   xmlns:sodipodi="http://sodipodi.sourceforge.net/DTD/sodipodi-0.dtd"
   xmlns="http://www.w3.org/2000/svg"
   xmlns:svg="http://www.w3.org/2000/svg">
  <defs
     id="defs1">
    <inkscape:path-effect
       effect="spiro"
       id="path-effect68"
       is_visible="true"
       lpeversion="1" />
    <inkscape:path-effect
       effect="spiro"
       id="path-effect67"
       is_visible="true"
       lpeversion="1" />
    <inkscape:path-effect
       effect="spiro"
       id="path-effect66"
       is_visible="true"
       lpeversion="1" />
    <inkscape:path-effect
       effect="spiro"
       id="path-effect65"
       is_visible="true"
       lpeversion="1" />
    <inkscape:path-effect
       effect="spiro"
       id="path-effect64"
       is_visible="true"
       lpeversion="1" />
    <inkscape:path-effect
       effect="spiro"
       id="path-effect63"
       is_visible="true"
       lpeversion="1" />
    <inkscape:path-effect
       effect="spiro"
       id="path-effect62"
       is_visible="true"
       lpeversion="1" />
    <inkscape:path-effect
       effect="spiro"
       id="path-effect61"
       is_visible="true"
       lpeversion="1" />
    <inkscape:path-effect
       effect="spiro"
       id="path-effect60"
       is_visible="true"
       lpeversion="1" />
    <inkscape:path-effect
       effect="spiro"
       id="path-effect59"
       is_visible="true"
       lpeversion="1" />
    <inkscape:path-effect
       effect="spiro"
       id="path-effect58"
       is_visible="true"
       lpeversion="1" />
    <inkscape:path-effect
       effect="spiro"
       id="path-effect57"
       is_visible="true"
       lpeversion="1" />
    <inkscape:path-effect
       effect="spiro"
       id="path-effect56"
       is_visible="true"
       lpeversion="1" />
    <inkscape:path-effect
       effect="spiro"
       id="path-effect55"
       is_visible="true"
       lpeversion="1" />
    <inkscape:path-effect
       effect="spiro"
       id="path-effect54"
       is_visible="true"
       lpeversion="1" />
    <inkscape:path-effect
       effect="spiro"
       id="path-effect53"
       is_visible="true"
       lpeversion="1" />
    <inkscape:path-effect
       effect="spiro"
       id="path-effect52"
       is_visible="true"
       lpeversion="1" />
    <inkscape:path-effect
       effect="spiro"
       id="path-effect51"
       is_visible="true"
       lpeversion="1" />
    <inkscape:path-effect
       effect="spiro"
       id="path-effect50"
       is_visible="true"
       lpeversion="1" />
    <inkscape:path-effect
       effect="spiro"
       id="path-effect49"
       is_visible="true"
       lpeversion="1" />
    <inkscape:path-effect
       effect="spiro"
       id="path-effect48"
       is_visible="true"
       lpeversion="1" />
  </defs>
  <sodipodi:namedview
     id="namedview1"
     pagecolor="#505050"
     bordercolor="#eeeeee"
     borderopacity="1"
     inkscape:showpageshadow="0"
     inkscape:pageopacity="0"
     inkscape:pagecheckerboard="0"
     inkscape:deskcolor="#505050"
     inkscape:document-units="px" />
  <g
     inkscape:groupmode="layer"
     id="layer1"
     inkscape:label="Avatar"
     style="display:inline"
     transform="translate(-76.234321,-4.155144)">
    <path
       style="opacity:1;fill:#87d0df;fill-opacity:1;stroke:#382d89;stroke-width:4;stroke-linecap:round;stroke-dasharray:none;stroke-opacity:1"
       d="m 671.3463,275.64202 7.19066,-28.54474 -0.87159,-10.45915 7.84436,-14.38132 13.94552,-10.45914 c 0,0 10.89494,-71.47082 -31.37743,-116.793779 C 625.80545,49.680934 570.89494,-0.87159533 527.31517,6.9727626 483.73541,14.817121 350.38132,71.470817 358.22568,157.75875 c 7.84436,86.28794 -21.78988,29.63425 7.84436,86.28794 29.63424,56.6537 29.63424,56.8716 29.63424,56.8716 l 0.4358,-19.6109 0.65369,-20.48249 c 0,0 -3.92217,-19.17509 -6.31906,-18.5214 -2.39689,0.6537 1.30739,-3.48638 1.30739,-3.48638 l 6.66294,-37.59159 -4.93049,-20.95457 10.47729,-27.11768 18.48933,-24.65244 5.85495,-10.16913 16.02409,-9.86098 4.93049,8.62835 13.4818,-8.32019 8.62835,-0.30816 6.16311,10.32321 20.49234,0.84743 8.77639,-0.0149 8.06225,-4.46693 5.99222,-10.56809 7.29961,-1.52529 4.24903,6.42801 8.06226,0.4358 4.90272,10.89494 15.47082,-3.81323 3.92217,-11.22179 6.21012,2.72374 h 10.45915 l 2.39688,4.14008 -8.607,5.55642 0.32685,5.66537 11.30235,-2.46223 h 9.24467 l 2.15708,10.16913 5.08457,9.55282 14.17515,-2.92748 9.24467,-9.86097 20.33826,21.26273 2.6478,16.21152 -6.97276,44.23346 13.29183,31.15954 2.61478,52.07782 -0.65369,8.06226 z"
       id="path29" />
    <path
       style="opacity:1;fill:none;stroke:#382d89;stroke-width:4;stroke-linecap:round;stroke-dasharray:none;stroke-opacity:1"
       d="M 422.17301,128.80899 C 411.69573,141.75152 404.3,153.46143 404.3,153.46143 l -8.62836,19.72195 -1.84893,7.39573 4.31418,20.33827 -1.84894,11.09359 -3.08155,12.32622 -0.61631,10.47729 -1.84894,8.01204 c 0,0 4.31418,3.08156 5.5468,14.79146 1.23262,11.70991 -0.61631,30.81555 -0.61631,30.81555 l 0.61631,16.6404 4.31418,31.43186 3.08155,45.60701 1.84894,15.40777 5.5468,13.55885 9.86097,16.64039 20.95457,21.57089 35.12973,20.33826 25.88506,7.39573 21.57088,0.61631 38.21128,-10.47729 24.03613,-9.86097 17.25671,-24.03613 36.36235,-22.8035 9.24466,-24.65244 5.5468,-27.734 1.84893,-46.22332 1.84894,-18.48933 -1.23263,-30.81555 -1.84893,-22.18719 -12.94253,-30.81555 6.77942,-44.37439 -2.46524,-15.40777 -15.40778,-17.25671 -4.93048,-4.31418 -9.24467,9.86098 -14.17515,3.08155 -5.5468,-10.47728 -1.84893,-9.24467 h -9.24467 l -11.0936,2.46524 -0.61631,-5.54679 8.62836,-5.5468 -2.46525,-4.31418 h -9.86097 l -6.77942,-2.46524 -3.69787,11.09359 -15.40777,3.69787 -3.08156,-6.16311 -1.84893,-4.93049 h -8.01204 l -4.31418,-6.77942 -7.39573,1.84893 -6.16311,10.47729 -8.01204,4.31418 h -16.02409 l -12.94253,-0.61631 -6.16311,-10.47729 h -8.62835 l -8.01205,5.5468 -5.54679,3.69787 -4.93049,-9.24467 -16.02409,9.86098 z"
       id="path11" />
    <path
       style="opacity:1;fill:#382d89;fill-opacity:1;stroke:none;stroke-width:4;stroke-linecap:round;stroke-dasharray:none;stroke-opacity:1"
       d="m 504.75868,223.10457 c -35.74603,-9.24466 -34.51341,-14.17515 -51.77012,-11.70991 -17.25671,2.46525 -31.43186,11.0936 -31.43186,11.0936 l -10.47728,12.32622 -2.46525,13.55884 -1.84893,5.5468 9.86097,-8.01204 8.01205,-12.32622 c 0,0 1.84893,-3.08156 5.5468,-4.93049 3.69786,-1.84893 11.7099,-1.23262 11.7099,-1.23262 l 11.70991,3.08155 13.55884,6.16311 19.10564,3.08156 h 14.17516 z"
       id="path12" />
    <path
       style="opacity:1;fill:#382d89;stroke:none;stroke-width:4;stroke-linecap:round;stroke-dasharray:none;stroke-opacity:1"
       d="m 637.26554,244.67545 -8.62835,-16.64039 -14.17515,-11.70991 -16.02409,-4.93049 -25.26875,-1.23262 -27.11768,6.16311 -14.79147,6.77942 6.16311,15.40777 17.87302,-6.1631 20.33826,-1.84894 12.32622,-2.46524 8.62836,-2.46525 11.0936,3.69787 14.79146,8.01204 11.70991,7.39573 z"
       id="path13" />
    <path
       style="opacity:1;fill:none;stroke:#382d89;stroke-width:4;stroke-linecap:round;stroke-dasharray:none;stroke-opacity:1"
       d="m 486.35019,260.8249 -6.75486,-3.92218 -13.07393,-0.65369 -12.42023,-0.6537 -11.54864,3.92218 -10.24125,6.75486"
       id="path14" />
    <path
       style="opacity:1;fill:#382d89;stroke:none;stroke-width:4;stroke-linecap:round;stroke-dasharray:none;stroke-opacity:1"
       d="m 469.35409,257.12062 c 0,0 2.17898,6.75487 0.43579,8.93385 -1.74319,2.17899 -6.75486,2.61479 -6.75486,2.61479 l -7.62646,0.2179 -4.35798,-1.08949 -2.39688,-1.3074 -0.4358,-1.08949 -0.6537,-2.17899 v -1.96109 l 0.6537,-1.52529 0.87159,-1.96109 v -0.6537 l 7.19067,-1.74319 z"
       id="path15" />
    <path
       style="opacity:1;fill:none;stroke:#382d89;stroke-width:4;stroke-linecap:round;stroke-dasharray:none;stroke-opacity:1"
       d="m 554.98833,260.17121 12.42023,-5.88327 12.63813,-1.74319 16.12452,1.08949 15.47081,4.79378 4.35798,1.96109"
       id="path16" />
    <path
       style="opacity:1;fill:#382d89;stroke:none;stroke-width:4;stroke-linecap:round;stroke-dasharray:none;stroke-opacity:1"
       d="m 573.94553,254.28794 c -0.6537,8.06225 4.14007,10.89494 4.14007,10.89494 l 3.26849,1.52529 3.26848,-0.2179 6.10117,-1.52529 2.61478,-1.96109 1.30739,-2.39689 -0.43579,-2.83268 -0.8716,-2.17899 -1.30739,-1.74319 -7.62646,-1.08949 h -6.97276 z"
       id="path17" />
    <path
       style="opacity:1;fill:none;stroke:#382d89;stroke-width:4;stroke-linecap:round;stroke-dasharray:none;stroke-opacity:1"
       d="m 493.10506,295.90661 c 0,0 -21.35409,20.0467 -2.61479,32.46693"
       id="path18" />
    <path
       style="opacity:1;fill:none;stroke:#382d89;stroke-width:4;stroke-linecap:round;stroke-dasharray:none;stroke-opacity:1"
       d="m 552.37354,296.56031 c 0,0 19.82879,27.67315 2.83269,28.32685"
       id="path19" />
    <path
       style="opacity:1;fill:none;stroke:#382d89;stroke-width:4;stroke-linecap:round;stroke-dasharray:none;stroke-opacity:1"
       d="m 500.29572,319.65759 c 0,0 20.26459,1.52529 17.8677,8.49805 -2.39688,6.97276 13.07393,1.0895 13.07393,1.0895 0,0 1.96109,-17.64981 16.56032,-6.75487"
       id="path20" />
    <path
       style="opacity:1;fill:none;stroke:#382d89;stroke-width:4;stroke-linecap:round;stroke-dasharray:none;stroke-opacity:1"
       d="m 540.17121,251.89105 c 0,0 -9.36965,20.70039 -1.3074,20.91829"
       id="path21" />
    <path
       style="opacity:1;fill:none;stroke:#382d89;stroke-width:4;stroke-linecap:round;stroke-dasharray:none;stroke-opacity:1"
       d="m 499.42412,254.50584 c 0,0 16.12452,19.61089 5.01168,19.61089"
       id="path22" />
    <path
       style="opacity:1;fill:none;stroke:#382d89;stroke-width:4;stroke-linecap:round;stroke-dasharray:none;stroke-opacity:1"
       d="m 464.99611,372.17121 41.83657,-9.15175 c 0,0 15.25292,7.40856 30.07004,-2.17899 14.81712,-9.58755 35.73541,22.22568 50.55253,2.61478"
       id="path23" />
    <path
       style="opacity:1;fill:none;stroke:#382d89;stroke-width:4;stroke-linecap:round;stroke-dasharray:none;stroke-opacity:1"
       d="m 491.14397,374.35019 c 0,0 15.25292,10.45915 66.24124,-2.17898"
       id="path24" />
    <path
       style="opacity:1;fill:#87d0df;fill-opacity:1;stroke:#382d89;stroke-width:4;stroke-linecap:round;stroke-dasharray:none;stroke-opacity:1"
       d="m 395.92218,304.40467 c 0,0 -6.31907,-24.18677 -9.15175,-23.96887 -2.83269,0.2179 -5.22957,-0.8716 -5.22957,-0.8716 l -3.70428,0.4358 -3.26849,5.66537 -2.61478,4.57588 -0.4358,9.80544 c 0,0 -1.30739,13.07393 -0.6537,14.59922 0.6537,1.5253 3.26849,12.20234 4.79378,13.29183 1.52529,1.0895 1.96109,35.95331 1.96109,35.95331 l 2.17899,2.61479 c 0,0 4.35797,10.67704 22.87937,3.48638 18.5214,-7.19066 0,-1.0895 0,-1.0895 z"
       id="path25" />
    <path
       style="opacity:1;fill:#87d0df;fill-opacity:1;stroke:#382d89;stroke-width:4;stroke-linecap:round;stroke-dasharray:none;stroke-opacity:1"
       d="m 657.91196,301.99237 c 0,0 14.17515,-35.74603 20.95457,-27.73399 6.77942,8.01204 8.01204,6.16311 7.70389,11.40175 -0.30816,5.23865 0.30815,36.67051 -2.15709,34.82157 -2.46524,-1.84893 0.92447,27.42584 0.92447,27.42584 l -1.23262,9.55282 c 0,0 -1.54078,1.54078 -4.62234,1.84893 -3.08155,0.30816 -0.30815,2.7734 -0.30815,2.7734 0,0 -24.65244,10.78545 -24.03613,-2.15708 0.61631,-12.94253 2.7734,-57.93324 2.7734,-57.93324 z"
       id="path26" />
    <path
       style="opacity:1;fill:none;stroke:#382d89;stroke-width:4;stroke-linecap:round;stroke-dasharray:none;stroke-opacity:1"
       d="m 682.5644,286.5846 c 0,0 -2.7734,-9.24466 -8.3202,-0.61631 -5.5468,8.62835 -8.93651,14.17515 -8.93651,14.17515 0,0 -2.15709,5.5468 -2.15709,20.64642 0,15.09962 -29.58292,6.16311 -6.77942,8.62835"
       id="path27" />
    <path
       style="opacity:1;fill:none;stroke:#382d89;stroke-width:4;stroke-linecap:round;stroke-dasharray:none;stroke-opacity:1"
       d="m 396.28795,310.62073 c 0,0 -15.71593,-32.66448 -18.18117,-20.64642 -2.46524,12.01806 -2.46524,23.11166 -2.46524,23.11166"
       id="path28" />
    <path
       style="opacity:1;fill:#87d0df;fill-opacity:1;stroke:#382d89;stroke-width:4;stroke-linecap:round;stroke-dasharray:none;stroke-opacity:1"
       d="m 427.95331,434.92607 3.48638,69.72763 -4.79378,18.3035 -7.84435,7.84436"
       id="path30" />
    <path
       style="opacity:1;fill:#87d0df;fill-opacity:1;stroke:#382d89;stroke-width:4;stroke-linecap:round;stroke-dasharray:none;stroke-opacity:1"
       d="m 640.62257,410.9572 -10.45915,78.87938 3.92218,20.04669 10.89494,21.35408"
       id="path31" />
    <path
       style="opacity:1;fill:#87d0df;fill-opacity:1;stroke:#382d89;stroke-width:4;stroke-linecap:round;stroke-dasharray:none;stroke-opacity:1"
       d="m 644.66127,530.33559 -2.7734,14.79146 -20.0301,25.57691 -14.17515,12.63437 -51.77013,-8.3202 -12.32622,2.7734 -9.86097,7.08758 -46.83963,14.17515 -20.95458,-11.0936 -18.79748,-14.79146 -19.10564,-20.95457 -8.62836,-17.87302 -0.46223,-3.92898 1.17157,-20.52936 -15.19264,17.37076 -8.3202,4.31418 -5.5468,0.92447 -4.93049,7.39573 -1.23262,10.78544 8.62835,20.64642 12.63438,18.18117 17.87302,17.87302 13.55884,8.3202 74.91726,-24.75303 22.66148,-6.97276 9.58755,-6.97276 11.33074,-2.61479 54.03891,7.84436 40.09339,7.84436 1.74319,-6.10117 h 6.10116 l 13.07393,-18.3035 6.10117,-20.91829 0.8716,-14.81712 -0.6537,-2.39689 -11.11284,-4.14007 -18.3035,-9.15175 -3.48638,-3.70428 z"
       id="path32" />
    <path
       style="opacity:1;fill:none;fill-opacity:1;stroke:#382d89;stroke-width:4;stroke-linecap:round;stroke-dasharray:none;stroke-opacity:1"
       d="m 634.5214,505.52529 46.19455,23.53308 c 0,0 53.16732,15.25291 57.96109,23.09727 4.79378,7.84436 21.35409,-9.15175 21.35409,-9.15175 l 25.27626,-0.4358 14.38133,2.17899 c 0,0 46.19455,-19.1751 71.47081,4.79378 25.27627,23.96887 34.42802,43.57976 83.23736,35.7354 48.80931,-7.84435 23.96887,20.48249 94.56811,20.48249 v 319.94032 l -80.12046,14.79147 -89.9814,-1.23262 4.93049,110.93598 H 435.11554 l 14.79147,-24.6524 -1.23263,-17.2568 34.51342,-29.58288 22.18719,-9.86098 11.0936,-33.28079 11.0936,-14.79146 8.62835,-17.25671 4.93049,-13.55884 2.46524,-22.1872 -1.23262,-17.2567 25.88506,-41.90915 4.93049,-13.55884 7.39573,-13.55884 -1.23262,-17.25671 -8.62835,-6.16311 -12.32622,3.69787 -12.32622,13.55884 -9.86098,12.32622 -6.16311,27.11768 h -6.16311 l 3.69787,-22.18719 2.46524,-12.32622 -4.93048,-19.72196 11.09359,-27.11768 -4.93049,-24.65244 7.39574,-34.51341 -4.93049,-7.39573 14.79146,-9.86098 6.77942,8.01205 22.80351,6.77942 12.94253,2.46524 8.01204,4.31418 6.16311,4.93048 17.25671,4.93049 10.47728,8.01204 -10.63229,-7.98003 -16.99611,-5.12062 -14.81712,-8.71595 -36.60701,-9.58755 -5.66537,-7.84436 -14.38132,10.45914 -3.48638,-0.87159 -13.50973,3.92218 -18.3035,-2.61479 -4.35798,-2.61478 -2.61478,3.92217 h -10.89495 l -20.91828,1.3074 -14.81712,-1.3074 -10.45915,-11.33074 -14.38132,1.7432 h -11.33074 l -6.53696,3.48638 -6.53697,-3.92218 -11.76654,-7.40856 -1.30739,-2.61479 -3.48638,1.30739 -6.10117,-2.61478 -7.84436,-7.40856 -1.30739,-6.53697 6.10117,-9.15175 7.40856,-0.87159 8.71595,2.61478 7.40856,-1.74319 3.05059,-2.17899 H 411.393 l 3.05058,1.74319 18.3035,-9.15175 6.97276,1.3074 100.16857,-33.62352 3.69786,-6.16311 13.55885,-3.69787 93.67926,16.02409 94.38963,5.23473 6.10116,-23.53308 9.58755,-10.45914 13.94553,-2.61479 67.98443,20.91829 33.12063,32.24903 45.32295,-10.45915 11.33074,-0.87159 56.6537,28.76264 59.7043,-22.66148"
       id="path33" />
    <path
       style="opacity:1;fill:#87d0df;fill-opacity:1;stroke:#382d89;stroke-width:4;stroke-linecap:round;stroke-dasharray:none;stroke-opacity:1"
       d="m 431.43969,508.14008 -11.42376,0.62462 -15.09962,18.48933 -8.01205,4.31418 -5.23864,0.61631 -44.37439,27.734 -108.47411,39.73907 -28.65508,22.20018 -20.95457,22.18719 -19.10564,15.40778 -16.70105,35.20874 -12.20234,9.58755 -13.94552,26.14786 -5.22957,9.58755 -19.09942,46.42836 -12.326218,46.22332 4.930488,28.96661 -2.465244,32.66449 v 9.86097 l -1.848933,17.25671 -4.930487,16.02408 -4.930488,22.1872 -3.081555,39.4439 24.652437,49.30492 1.84893,1.8489 329.28161,0.079 7.84436,-13.074 5.22957,-12.2023 v -16.5603 l 33.12063,-26.14836 24.40467,-13.07393 10.45914,-28.76265 1.74319,-5.22957 c 0,0 27.89105,-19.1751 25.27627,-86.28794 l 22.66147,-34.86381 15.68872,-34.86381 c 0,0 2.61479,-34.86382 -25.27626,-13.94553 -27.89106,20.91829 -23.53308,54.91051 -27.89106,49.68093 -4.35797,-5.22957 2.61479,-29.63424 2.61479,-29.63424 l -3.48638,-25.27626 10.45914,-24.40467 -4.35797,-27.89105 5.22957,-30.50584 -5.22957,-11.33074 -9.58755,4.35798 h -9.58755 l -12.20234,-1.74319 -5.22957,-1.74319 v 12.20233 l 4.35798,26.14786 -22.03841,62.18654 -24.65244,35.74603 -2.46524,16.6404 -12.32622,23.41982 -6.77942,22.18719 v -4.31418 l -5.5468,4.31418 -4.93049,6.77942 -1.23262,5.5468 -2.46524,4.31418 -10.47729,1.84893 -12.94253,9.86097 -8.01204,3.08156 -4.31418,-3.08156 -19.52914,-6.36685 -30.50584,1.74319 -33.99222,14.81712 -20.04669,20.04669 -6.10117,7.84436 -34.86381,-13.07393 -1.74319,-6.97276 L 257.12062,896 l 13.07393,-9.58755 -19.17509,-142.07004 -20.0467,-139.45525 12.20234,-6.10117 40.96498,-14.81712 52.29572,-20.04669 13.07393,-5.22957 14.81712,-9.58755 27.01945,-18.3035 13.07393,-3.48639 15.68872,-18.3035 z"
       id="path34" />
    <path
       style="opacity:1;fill:#87d0df;fill-opacity:1;stroke:#382d89;stroke-width:4;stroke-linecap:round;stroke-dasharray:none;stroke-opacity:1"
       d="m 631.90661,697.27626 10.45915,13.07393 46.19455,5.22958 38.3502,20.91828 -0.8716,20.0467 26.14786,30.50583 74.90255,62.22593 46.83963,24.65244 125.72744,25.88506 50.53751,-1.23262 -1.2326,-292.1314 -59.16588,20.95458 -60.39848,-28.35031 -54.23536,11.0936 -30.81555,-30.81555 -71.49208,-22.18719 -14.79146,3.69786 -8.62835,12.32622 -3.69787,18.48933 H 652.057 l 8.62836,23.41982 -2.46525,19.72195 v 19.72195 l -3.69786,14.79146 -4.93049,14.79146 -8.62835,11.0936 z"
       id="path37" />
    <path
       style="opacity:1;fill:#87d0df;fill-opacity:1;stroke:#382d89;stroke-width:4;stroke-linecap:round;stroke-dasharray:none;stroke-opacity:1"
       d="m 598.43795,680.40731 -24.03613,4.93049 -13.55884,6.77942 h -12.32622 l -11.0936,-1.23262 1.23263,-14.17516 -4.31418,-9.86097 13.55884,-9.86098 8.01204,9.86098 22.80351,4.31417 14.17515,4.31418 z"
       id="path38" />
    <path
       style="opacity:1;fill:none;fill-opacity:1;stroke:#382d89;stroke-width:4;stroke-linecap:round;stroke-dasharray:none;stroke-opacity:1"
       d="m 403.68368,158.39192 h -8.62835 c -2.1025,0 -4.19547,0.24193 -6.26204,0.62899 -1.03328,0.19353 -2.07731,0.37934 -3.12813,0.34912 -1.05081,-0.0302 -2.13125,-0.30178 -2.93605,-0.97811 -0.40256,-0.33829 -0.72114,-0.76452 -1.09805,-1.13116 -0.18846,-0.18333 -0.39274,-0.35253 -0.6215,-0.48211 -0.22876,-0.12959 -0.48332,-0.2188 -0.74569,-0.23566 -0.2062,-0.0132 -0.41226,0.018 -0.61801,0.0369 -0.20576,0.0189 -0.41744,0.0249 -0.61461,-0.0369 -0.27716,-0.0868 -0.50127,-0.30307 -0.64377,-0.55615 -0.1425,-0.25308 -0.21063,-0.54148 -0.24982,-0.82927 -0.0392,-0.28778 -0.0511,-0.57875 -0.0902,-0.86656 -0.039,-0.28781 -0.10681,-0.57625 -0.24888,-0.82958 -0.1428,-0.25464 -0.35462,-0.46334 -0.5756,-0.65413 -0.22098,-0.19078 -0.45468,-0.36804 -0.65702,-0.57849 -0.45835,-0.47674 -0.73436,-1.1031 -0.9019,-1.74287 -0.16754,-0.63976 -0.2348,-1.30066 -0.33072,-1.955 -0.76769,-5.23679 -3.38345,-10.12436 -3.69787,-15.40777 -0.0753,-1.26485 -0.002,-2.59171 0.61632,-3.69787 0.52157,-0.93358 1.40499,-1.63907 2.3962,-2.04045 0.99121,-0.40139 2.08475,-0.51191 3.15059,-0.42479 0.61795,0.0505 1.25114,0.16443 1.84894,0 0.44428,-0.1222 0.83182,-0.38898 1.23262,-0.61631 1.47829,-0.83847 3.27209,-1.1622 4.91916,-0.74325 0.82354,0.20947 1.60264,0.60059 2.2497,1.1514 0.64707,0.55082 1.15987,1.26191 1.45949,2.05709 0.44173,1.17234 0.40993,2.46219 0.61631,3.69787 0.13961,0.83591 0.38898,1.64881 0.61631,2.46524 0.28244,1.01434 0.5329,2.04558 0.58637,3.09715 0.0535,1.05158 -0.0994,2.1324 -0.58637,3.06596 -0.40462,0.7757 -1.03577,1.43153 -1.79539,1.8656 -0.75961,0.43407 -1.64506,0.64487 -2.51878,0.59965"
       id="path47"
       inkscape:path-effect="#path-effect48"
       inkscape:original-d="m 403.68368,158.39192 c -2.87611,0 -5.75223,0 -8.62835,0 -0.2473,0 -11.19091,0.56765 -12.32622,0 -2.45578,-1.22789 -0.003,-1.2333 -2.46524,-1.84893 -0.39861,-0.0997 -0.89076,0.22791 -1.23262,0 -1.09384,-0.72923 -0.80562,-2.22755 -1.23263,-3.08156 -0.25986,-0.51972 -0.88398,-0.76777 -1.23262,-1.23262 -0.80985,-1.0798 -0.70811,-2.64886 -1.23262,-3.69787 -2.65288,-5.30575 -3.69787,-9.45827 -3.69787,-15.40777 0,-1.13056 -0.44922,-2.98751 0.61632,-3.69787 0.92997,-0.61998 4.42512,-2.24091 5.54679,-2.46524 0.60435,-0.12087 1.24459,0.12087 1.84894,0 0.45045,-0.0901 0.78217,-0.52622 1.23262,-0.61631 2.88866,-0.57773 7.12048,-0.55051 8.62835,2.46524 0.9839,1.96781 0.0531,2.00823 0.61631,3.69787 1.05211,3.15632 0.61631,-4.13794 0.61631,2.46524 0,1.45309 0.66231,4.83849 0,6.16311 -1.10826,2.21654 -2.96486,1.11593 -4.31417,2.46525" />
    <path
       style="opacity:1;fill:none;fill-opacity:1;stroke:#382d89;stroke-width:4;stroke-linecap:round;stroke-dasharray:none;stroke-opacity:1"
       d="m 419.70777,133.12317 c -2.58063,-0.39716 -5.09293,-1.2346 -7.39573,-2.46524 -1.30864,-0.69935 -2.55006,-1.52494 -3.69787,-2.46525 -3.20912,-2.62899 -5.65178,-6.14472 -7.18468,-9.99963 -1.53289,-3.8549 -2.17099,-8.04055 -2.05998,-12.18756 0.0293,-1.09519 0.11107,-2.19586 0.38133,-3.25759 0.27026,-1.06173 0.73757,-2.0886 1.4676,-2.905523 0.74771,-0.836705 1.75248,-1.4271 2.82907,-1.743487 1.07658,-0.316388 2.22263,-0.365478 3.33466,-0.215444 2.22408,0.300069 4.26918,1.370272 6.16249,2.575244 1.33389,0.84894 2.63113,1.78401 3.68384,2.96373 1.05272,1.17972 1.85403,2.62682 2.05801,4.19473 0.10199,0.78395 0.0524,1.59051 -0.1749,2.34769 -0.2273,0.75718 -0.63463,1.46351 -1.19819,2.01793 -0.56356,0.55443 -1.2846,0.95306 -2.06027,1.10574 -0.77568,0.15268 -1.60346,0.0541 -2.30849,-0.3036 -0.20868,-0.10586 -0.41232,-0.23561 -0.64347,-0.272 -0.11558,-0.0182 -0.23688,-0.0115 -0.34501,0.0332 -0.10814,0.0447 -0.20182,0.1297 -0.24414,0.23878 -0.0375,0.0966 -0.0333,0.204 -0.0214,0.30691 0.0119,0.10292 0.031,0.20625 0.0214,0.3094 -0.009,0.0967 -0.0435,0.19052 -0.0969,0.27158 -0.0534,0.0811 -0.12557,0.14936 -0.20797,0.20069 -0.16482,0.10267 -0.36775,0.13538 -0.56037,0.11081 -0.19261,-0.0246 -0.37547,-0.10359 -0.53852,-0.20902 -0.16306,-0.10544 -0.30767,-0.23692 -0.44514,-0.37406 -1.28136,-1.27832 -1.9738,-3.12484 -1.84894,-4.93049"
       id="path48"
       inkscape:path-effect="#path-effect49"
       inkscape:original-d="m 419.70777,133.12317 c -2.01925,-1.92526 -5.0971,-1.31593 -7.39573,-2.46524 -1.32503,-0.66252 -2.46525,-1.6435 -3.69787,-2.46525 -8.01328,-5.34219 -9.24466,-13.22492 -9.24466,-22.18719 0,-2.42985 -0.7646,-5.29194 1.84893,-6.163113 2.27097,-0.756989 10.34752,0.05097 12.32622,0.616313 3.69883,1.05681 3.63879,11.11329 0,12.32622 -0.38979,0.12993 -0.86513,-0.18375 -1.23262,0 -0.18375,0.0919 0.14526,0.47104 0,0.61631 -0.0616,0.0616 -1.7873,0.0616 -1.84893,0 -0.89799,-0.89799 -0.72169,-4.93049 -1.84894,-4.93049" />
    <path
       style="opacity:1;fill:none;fill-opacity:1;stroke:#382d89;stroke-width:4;stroke-linecap:round;stroke-dasharray:none;stroke-opacity:1"
       d="m 434.49923,113.40122 c -0.24927,-4.35607 -0.86853,-8.69091 -1.84893,-12.94253 -0.35509,-1.539889 -0.75897,-3.078377 -0.87102,-4.6547 -0.11205,-1.576322 0.0874,-3.217618 0.87102,-4.589967 0.22871,-0.400562 0.50882,-0.784064 0.61631,-1.232622 0.0963,-0.401914 0.0455,-0.822606 -0.004,-1.232883 -0.0498,-0.410277 -0.0976,-0.831834 0.004,-1.23236 0.0787,-0.309265 0.24539,-0.593036 0.46261,-0.826819 0.21723,-0.233782 0.48392,-0.418738 0.77044,-0.55926 0.57304,-0.281044 1.21515,-0.384045 1.84851,-0.462854 1.28511,-0.159906 2.60909,-0.231676 3.85799,0.110842 0.62445,0.171259 1.22406,0.446924 1.73662,0.842583 0.51256,0.39566 0.93601,0.914017 1.18481,1.511819 0.24998,0.60065 0.32179,1.268822 0.61631,1.848932 0.23353,0.459968 0.59468,0.840116 0.94485,1.218912 0.35017,0.378795 0.70033,0.772419 0.90408,1.246332 0.1656,0.385194 0.22715,0.810195 0.21463,1.229291 -0.0125,0.419097 -0.0973,0.83342 -0.21463,1.235953 -0.5859,2.010118 -1.9868,3.723802 -3.69787,4.930488 -0.27645,0.194963 -0.56309,0.378943 -0.87451,0.511053 -0.31142,0.13211 -0.65013,0.21114 -0.98769,0.18902 -0.33756,-0.0221 -0.67384,-0.15132 -0.91296,-0.39059 -0.11957,-0.11964 -0.21361,-0.265457 -0.26839,-0.425481 -0.0548,-0.160024 -0.0697,-0.334178 -0.038,-0.500313 0.0201,-0.105361 0.0586,-0.206956 0.0726,-0.3133 0.007,-0.05317 0.008,-0.107584 -0.003,-0.160124 -0.0108,-0.05254 -0.0335,-0.103251 -0.0697,-0.142887 -0.0369,-0.04045 -0.0866,-0.06812 -0.13935,-0.08269 -0.0528,-0.01457 -0.10849,-0.01648 -0.16287,-0.01028 -0.10876,0.0124 -0.21099,0.0562 -0.31409,0.09297 -0.71468,0.254872 -1.54302,0.167836 -2.18912,-0.230016 -0.6461,-0.397852 -1.09668,-1.098349 -1.1908,-1.851258 -0.0941,-0.75291 0.17018,-1.542766 0.69847,-2.087416 0.52828,-0.54465 1.30971,-0.832906 2.06514,-0.761798"
       id="path49"
       inkscape:path-effect="#path-effect50"
       inkscape:original-d="m 434.49923,113.40122 c 0.44994,-4.40886 -1.48791,-8.61034 -1.84893,-12.94253 -0.2051,-2.461242 -0.50953,-6.696995 0,-9.244667 0.0901,-0.45045 0.54079,-0.779501 0.61631,-1.232622 0.1351,-0.810567 -0.25986,-1.685665 0,-2.465243 0.3812,-1.143597 2.14689,-1.662 3.08156,-1.848933 2.3659,-0.47318 5.44875,0.247465 6.77942,2.465244 0.33424,0.557069 0.32578,1.267869 0.61631,1.848932 0.41883,0.837667 1.4301,1.627578 1.84893,2.465244 0.3675,0.734994 0,1.643496 0,2.465244 0,3.469024 0.25781,4.930488 -3.69787,4.930488 -0.87988,0 -2.5792,0.388383 -3.08155,-0.616311 -0.0919,-0.183748 0.14527,-0.471045 0,-0.616311 -0.14527,-0.145266 -0.47105,0.145266 -0.61631,0 -0.94029,-0.940291 -0.61631,-3.536602 -0.61631,-4.930488" />
    <path
       style="opacity:1;fill:none;fill-opacity:1;stroke:#382d89;stroke-width:4;stroke-linecap:round;stroke-dasharray:none;stroke-opacity:1"
       d="m 466.5474,109.70335 c -3.14579,-2.44317 -5.70269,-5.63929 -7.39573,-9.24466 -0.47048,-1.001904 -0.87502,-2.034042 -1.23262,-3.081557 -0.80366,-2.354148 -1.37427,-4.822279 -1.28866,-7.30835 0.0856,-2.486072 0.87322,-5.00353 2.52128,-6.866802 1.06316,-1.201988 2.44911,-2.095845 3.94042,-2.688348 1.49131,-0.592503 3.08755,-0.891938 4.68794,-1.009518 0.61547,-0.04522 1.23512,-0.06395 1.84893,0 1.65351,0.172272 3.22689,0.960297 4.39449,2.143716 1.1676,1.183418 1.9296,2.748958 2.19517,4.390067 0.26557,1.641109 0.0413,3.35096 -0.58724,4.890014 -0.62855,1.539053 -1.65471,2.906667 -2.92087,3.983977 -0.78439,0.667392 -1.68824,1.237516 -2.70046,1.427502 -0.50611,0.09499 -1.03376,0.09159 -1.53167,-0.03977 -0.49792,-0.131352 -0.96483,-0.393563 -1.31467,-0.771426 -0.30423,-0.328598 -0.51275,-0.73284 -0.78063,-1.091689 -0.13394,-0.179424 -0.28405,-0.348703 -0.46195,-0.484658 -0.17791,-0.135954 -0.38515,-0.237879 -0.60635,-0.272586 -0.20333,-0.0319 -0.4106,-0.0066 -0.61631,0 -0.90564,0.02921 -1.81753,-0.322921 -2.4685,-0.953226 -0.65096,-0.630305 -1.03231,-1.530372 -1.03231,-2.436484 0,-0.906112 0.38135,-1.806179 1.03231,-2.436484 0.65097,-0.630305 1.56286,-0.982438 2.4685,-0.953226"
       id="path50"
       inkscape:path-effect="#path-effect51"
       inkscape:original-d="m 466.5474,109.70335 c -3.92891,-2.65149 -5.72743,-5.07391 -7.39573,-9.24466 -0.41087,-1.027187 -1.03472,-1.99309 -1.23262,-3.081557 -0.4784,-2.631213 -0.35514,-11.793506 1.23262,-14.175152 1.3727,-2.059041 5.90864,-3.697866 8.62836,-3.697866 0.61631,0 1.25102,-0.149477 1.84893,0 2.74626,0.686566 5.0553,13.434028 3.08155,15.407774 -0.58488,0.584879 -4.52206,1.128678 -5.5468,0.616311 -0.77957,-0.389789 -1.12372,-1.365459 -1.84893,-1.848933 -0.17093,-0.113956 -0.52444,0.183749 -0.61631,0 -0.71876,-1.437518 0,-5.134387 0,-6.77942" />
    <path
       style="opacity:1;fill:none;fill-opacity:1;stroke:#382d89;stroke-width:4;stroke-linecap:round;stroke-dasharray:none;stroke-opacity:1"
       d="m 496.13033,118.33171 c -4.22159,-3.75181 -6.92724,-9.16311 -7.39573,-14.79147 -0.39423,-4.736252 0.73033,-9.449136 1.23262,-14.17515 0.415,-3.904727 0.42273,-7.931029 1.83692,-11.594251 0.70709,-1.831612 1.77551,-3.55073 3.26262,-4.832631 1.48712,-1.2819 3.41476,-2.100372 5.37775,-2.062447 0.6175,0.01193 1.24049,0.106061 1.84893,0 0.3153,-0.05496 0.62044,-0.162953 0.938,-0.202843 0.15878,-0.01994 0.32084,-0.02254 0.47806,0.0073 0.15722,0.02987 0.30976,0.09329 0.43287,0.195522 0.17864,0.148345 0.28374,0.366492 0.36323,0.584662 0.0795,0.21817 0.13969,0.445326 0.25308,0.64796 0.1841,0.328992 0.49566,0.569097 0.82617,0.750461 0.33051,0.181364 0.68604,0.312636 1.02277,0.482161 1.14582,0.576851 2.03177,1.577879 2.69425,2.67642 0.66248,1.098542 1.12452,2.303369 1.61992,3.48669 1.09804,2.6228 2.39284,5.234813 2.66149,8.065468 0.13433,1.415328 -5.4e-4,2.872612 -0.5346,4.190177 -0.53406,1.317565 -1.48665,2.487096 -2.7432,3.152129 -0.97887,0.51807 -2.10069,0.718317 -3.08155,1.232622 -1.1147,0.584487 -2.01699,1.558555 -3.20363,1.978173 -0.59332,0.209809 -1.26111,0.266046 -1.84802,0.03894 -0.29346,-0.113551 -0.56161,-0.297245 -0.76133,-0.540395 -0.19973,-0.24315 -0.32892,-0.546464 -0.35013,-0.86041 -0.0138,-0.205092 0.0175,-0.411495 0,-0.616311 -0.0321,-0.37651 -0.2271,-0.72162 -0.46459,-1.01554 -0.23749,-0.29392 -0.51981,-0.54848 -0.76803,-0.833393 -0.73617,-0.844984 -1.15408,-1.960865 -1.15408,-3.081554 0,-1.12069 0.41791,-2.236571 1.15408,-3.081555"
       id="path51"
       inkscape:path-effect="#path-effect52"
       inkscape:original-d="m 496.13033,118.33171 c -6.09561,-2.87002 -7.09923,-8.56501 -7.39573,-14.79147 -0.26975,-5.664693 -0.18968,-8.723015 1.23262,-14.17515 1.19357,-4.575357 5.44055,-15.97096 10.47729,-18.489329 0.55124,-0.275622 1.23262,0 1.84893,0 0.61631,0 1.29769,-0.275622 1.84893,0 0.41088,0.205437 0.29149,0.907798 0.61631,1.232622 0.52377,0.523764 1.32517,0.708859 1.84894,1.232622 1.28694,1.286948 3.54419,4.623143 4.31417,6.16311 1.90576,3.811508 3.33441,12.247198 -0.61631,15.407774 -0.86388,0.691108 -2.09204,0.737864 -3.08155,1.232622 -1.37134,0.685671 -4.59533,1.138905 -6.16311,0.616311 -0.1949,-0.06497 0.0919,-0.432562 0,-0.616311 -0.30571,-0.611424 -1.01983,-1.210546 -1.23262,-1.848933 -0.56393,-1.691763 0,-4.343874 0,-6.163109" />
    <path
       style="opacity:1;fill:none;fill-opacity:1;stroke:#382d89;stroke-width:4;stroke-linecap:round;stroke-dasharray:none;stroke-opacity:1"
       d="m 528.1785,104.15655 c -0.64505,-2.0456 -1.26144,-4.10024 -1.84893,-6.163106 -0.5454,-1.915079 -1.06794,-3.847913 -1.27021,-5.828842 -0.20227,-1.980929 -0.0723,-4.026978 0.6539,-5.881066 1.09319,-2.791094 3.47062,-4.940528 6.1535,-6.277465 2.68288,-1.336937 5.66879,-1.939457 8.63796,-2.350889 1.22907,-0.17031 2.49597,-0.308329 3.69787,0 0.83143,0.213291 1.60275,0.636852 2.25966,1.189331 0.65691,0.552478 1.20151,1.231819 1.63887,1.970389 0.87471,1.47714 1.31633,3.168015 1.64826,4.852323 0.3982,2.02058 0.65264,4.112169 0.257,6.133252 -0.19782,1.010542 -0.55992,1.994447 -1.11766,2.860045 -0.55773,0.865598 -1.31522,1.610312 -2.22089,2.1003 -0.80985,0.438149 -1.73307,0.674262 -2.46524,1.232622 -0.46262,0.352796 -0.82537,0.817153 -1.23263,1.232622 -0.91414,0.932554 -2.07063,1.625504 -3.3241,1.991744 -1.25347,0.36623 -2.60112,0.40494 -3.87354,0.11125 -1.27243,-0.29369 -2.46678,-0.91911 -3.43294,-1.797668 -0.96616,-0.878553 -1.70196,-2.008259 -2.11492,-3.247125 -0.41295,-1.238867 -0.50214,-2.584111 -0.25634,-3.86665 0.2458,-1.282539 0.82603,-2.499491 1.66776,-3.497898 0.84172,-0.998407 1.94306,-1.776026 3.16558,-2.235118 1.22252,-0.459092 2.56348,-0.598627 3.85433,-0.401065"
       id="path52"
       inkscape:path-effect="#path-effect53"
       inkscape:original-d="m 528.1785,104.15655 c 0.30393,-2.31906 -1.4283,-4.05993 -1.84893,-6.163106 -0.33426,-1.671295 -0.90568,-10.359517 -0.61631,-11.709908 1.88662,-8.80424 7.85068,-8.628354 14.79146,-8.628354 1.23262,0 2.5534,-0.457784 3.69787,0 2.3398,0.935923 5.0577,5.56659 5.54679,8.012043 0.63053,3.152621 -0.25856,9.211604 -3.08155,11.093597 -0.76444,0.509627 -1.67743,0.759933 -2.46524,1.232622 -0.76562,0.459372 -0.30659,1.541302 -1.23263,1.232622 -4.65605,-1.552017 -4.31417,-9.107238 -4.31417,-12.94253" />
    <path
       style="opacity:1;fill:none;fill-opacity:1;stroke:#382d89;stroke-width:4;stroke-linecap:round;stroke-dasharray:none;stroke-opacity:1"
       d="m 568.85502,106.00549 c -2.48784,-2.86234 -3.83788,-6.687473 -3.69786,-10.47729 0.14487,-3.920869 1.86464,-7.728747 4.57355,-10.567059 2.7089,-2.838312 6.36514,-4.715184 10.21791,-5.457026 1.62785,-0.313439 3.32905,-0.428427 4.93049,0 1.28116,0.342744 2.4655,1.031756 3.40987,1.962885 0.94437,0.931129 1.64819,2.101134 2.04617,3.366221 0.79597,2.530173 0.31785,5.398793 -1.14186,7.613424 -0.56544,0.857876 -1.26505,1.619812 -1.84894,2.465244 -0.42105,0.609657 -0.78107,1.261506 -1.23262,1.848933 -0.51951,0.675835 -1.16311,1.26415 -1.9152,1.665412 -0.75208,0.401262 -1.61564,0.609634 -2.46459,0.532647 -0.84895,-0.07699 -1.67854,-0.449888 -2.2562,-1.076742 -0.57767,-0.626854 -0.8841,-1.510626 -0.75974,-2.353939 0.0307,-0.208011 0.0862,-0.412258 0.10615,-0.621568 0.02,-0.20931 0.001,-0.430336 -0.10615,-0.611054 -0.0602,-0.101137 -0.14597,-0.185618 -0.24274,-0.252565 -0.0968,-0.06695 -0.20444,-0.116912 -0.31498,-0.157237 -0.22109,-0.08065 -0.45463,-0.123632 -0.6749,-0.206509 -0.37315,-0.140401 -0.70173,-0.396784 -0.92864,-0.724605 -0.22691,-0.327821 -0.35116,-0.725636 -0.35116,-1.124328 0,-0.398692 0.12425,-0.796507 0.35116,-1.124328 0.22691,-0.327821 0.55549,-0.584204 0.92864,-0.724605"
       id="path53"
       inkscape:path-effect="#path-effect54"
       inkscape:original-d="m 568.85502,106.00549 c -1.99234,-3.23349 -3.02586,-6.781264 -3.69786,-10.47729 -2.19865,-12.092551 2.90049,-16.024085 14.79146,-16.024085 0.78107,0 4.33499,-0.51043 4.93049,0 3.61154,3.09561 5.09173,8.2772 4.31418,12.94253 -0.56113,3.366748 -0.17699,0.7933 -1.84894,2.465244 -1.49689,1.496897 0.18327,0.905005 -1.23262,1.848933 -1.75501,1.170007 -6.56026,1.273778 -7.39573,-1.232622 -0.12993,-0.389789 0.22791,-0.890754 0,-1.232622 -0.25481,-0.38222 -1.02719,-0.205437 -1.23262,-0.616311 -0.29063,-0.58126 0,-2.839407 0,-3.697866" />
    <path
       style="opacity:1;fill:none;fill-opacity:1;stroke:#382d89;stroke-width:4;stroke-linecap:round;stroke-dasharray:none;stroke-opacity:1"
       d="m 597.20533,122.02957 c -1.06332,-2.52805 -1.06332,-5.48399 0,-8.01204 0.53455,-1.2709 1.31903,-2.42503 1.84893,-3.69787 0.65232,-1.56691 0.90048,-3.26603 1.23262,-4.93048 0.63806,-3.19753 1.6272,-6.376795 3.42823,-9.094804 1.80104,-2.718008 4.4914,-4.950194 7.66537,-5.696664 1.78208,-0.419118 3.67202,-0.358508 5.42943,0.154306 1.7574,0.512814 3.37922,1.474762 4.68638,2.756467 2.61434,2.56341 3.87507,6.395941 3.44303,10.031755 -0.2843,2.39249 -1.24545,4.65701 -2.41161,6.7653 -1.16615,2.10829 -2.54364,4.09255 -3.7515,6.17723 -0.10445,0.18028 -0.20808,0.36198 -0.33581,0.5266 -0.12772,0.16462 -0.28145,0.31281 -0.46641,0.40874 -0.18496,0.0959 -0.40361,0.13622 -0.60539,0.0843 -0.1009,-0.026 -0.19631,-0.0747 -0.27404,-0.14403 -0.0777,-0.0694 -0.13738,-0.15952 -0.16728,-0.25932 -0.0296,-0.099 -0.0298,-0.20431 -0.0223,-0.30734 0.008,-0.10302 0.0225,-0.20567 0.0223,-0.30897 -4.6e-4,-0.22935 -0.0769,-0.455 -0.19805,-0.64975 -0.12114,-0.19475 -0.28563,-0.35997 -0.46708,-0.50025 -0.36289,-0.28057 -0.79054,-0.46279 -1.1838,-0.69893 -1.34246,-0.80612 -2.25649,-2.28563 -2.37659,-3.84691 -0.1201,-1.56128 0.5569,-3.16318 1.76028,-4.16513"
       id="path54"
       inkscape:path-effect="#path-effect55"
       inkscape:original-d="m 597.20533,122.02957 c 0.51474,-2.61206 -0.60053,-5.40975 0,-8.01204 0.30988,-1.34282 1.38542,-2.40004 1.84893,-3.69787 0.56978,-1.59538 0.79612,-3.29361 1.23262,-4.93048 1.1724,-4.39651 5.72507,-13.896712 11.0936,-14.791468 7.21253,-1.202088 12.49956,6.586819 13.55884,12.942528 0.91156,5.46933 -1.56471,10.64333 -6.16311,12.94253 -0.82175,0.41088 -0.44612,1.31772 -1.84893,0.61631 -0.18375,-0.0919 0.0919,-0.43256 0,-0.61631 -0.34651,-0.69302 -1.60558,-1.11888 -1.84893,-1.84893 -0.81294,-2.4388 -0.61631,-5.22084 -0.61631,-8.01204" />
    <path
       style="opacity:1;fill:none;fill-opacity:1;stroke:#382d89;stroke-width:4;stroke-linecap:round;stroke-dasharray:none;stroke-opacity:1"
       d="m 635.41661,133.73948 c -0.76793,-0.9254 -1.39377,-1.96848 -1.84893,-3.08155 -0.79114,-1.93469 -1.05764,-4.05643 -0.98469,-6.14535 0.0729,-2.08893 0.4764,-4.15341 0.98469,-6.18087 0.86743,-3.45998 2.07364,-6.89925 4.1826,-9.77609 1.05447,-1.43842 2.33063,-2.72349 3.81426,-3.71334 1.48364,-0.98985 3.17819,-1.67964 4.94567,-1.91835 1.46303,-0.19759 3.00832,-0.0724 4.31417,0.61631 1.5542,0.81966 2.60114,2.32507 3.69787,3.69787 1.75018,2.19073 3.79817,4.21422 4.93049,6.77942 0.6502,1.47301 0.97336,3.12159 0.7067,4.70948 -0.13333,0.79394 -0.41378,1.56571 -0.84558,2.24518 -0.4318,0.67947 -1.01646,1.26497 -1.71006,1.67369 -0.32194,0.18971 -0.66518,0.34082 -0.9903,0.52502 -0.32513,0.18419 -0.63712,0.40665 -0.85863,0.7076 -0.19399,0.26356 -0.31044,0.57637 -0.3946,0.89262 -0.0842,0.31626 -0.13837,0.63985 -0.22171,0.95632 -0.16984,0.64493 -0.46277,1.2596 -0.87552,1.78345 -0.41274,0.52385 -0.94642,0.95525 -1.55507,1.22787 -0.60865,0.27262 -1.29211,0.38362 -1.95306,0.29467 -0.66096,-0.0889 -1.2966,-0.38073 -1.77946,-0.84075 -0.37297,-0.35533 -0.64788,-0.79885 -0.92016,-1.23615 -0.27229,-0.4373 -0.5507,-0.87918 -0.92877,-1.22909 -0.44104,-0.40819 -0.99494,-0.67045 -1.48244,-1.02185 -0.24375,-0.1757 -0.47296,-0.37596 -0.65187,-0.61736 -0.17891,-0.2414 -0.30602,-0.5266 -0.33094,-0.82604 -0.0171,-0.20589 0.0138,-0.41227 0.0335,-0.61792 0.0197,-0.20566 0.0277,-0.41737 -0.0335,-0.6147 -0.0874,-0.28181 -0.30594,-0.50337 -0.53844,-0.68502 -0.23251,-0.18165 -0.48775,-0.33679 -0.69418,-0.5476 -0.31839,-0.32514 -0.50301,-0.77755 -0.50301,-1.23262 0,-0.45507 0.18462,-0.90748 0.50301,-1.23262"
       id="path55"
       inkscape:path-effect="#path-effect56"
       inkscape:original-d="m 635.41661,133.73948 c -0.61631,-1.02718 -1.5584,-1.91943 -1.84893,-3.08155 -0.38975,-1.55899 -0.30635,-10.69238 0,-12.32622 1.27481,-6.79903 5.55212,-14.48398 12.94253,-15.40778 1.18341,-0.14793 3.32983,0.0538 4.31417,0.61631 1.51352,0.86487 2.46525,2.46525 3.69787,3.69787 2.1975,2.1975 4.13222,3.58637 4.93049,6.77942 0.64307,2.5723 -0.13421,6.57069 -1.84894,8.62835 -0.47419,0.56903 -1.38621,0.65422 -1.84893,1.23262 -0.40583,0.5073 -0.15694,1.38957 -0.61631,1.84894 -0.76169,0.76169 -4.82148,3.13606 -6.16311,2.46524 -0.91874,-0.45937 -1.23262,-1.64349 -1.84893,-2.46524 -0.6185,-0.82467 -2.14822,-1.51416 -2.46525,-2.46525 -0.12993,-0.38979 0.12993,-0.84283 0,-1.23262 -0.18375,-0.55124 -0.97276,-0.7129 -1.23262,-1.23262 -0.29546,-0.59092 0,-1.78199 0,-2.46524" />
    <path
       style="opacity:1;fill:none;fill-opacity:1;stroke:#382d89;stroke-width:4;stroke-linecap:round;stroke-dasharray:none;stroke-opacity:1"
       d="m 650.20807,161.47347 c 2.17423,-2.19955 4.67537,-4.07541 7.39573,-5.54679 1.21225,-0.65568 2.46608,-1.23076 3.69787,-1.84894 2.42195,-1.21547 4.84344,-2.62507 7.53842,-2.9084 1.34749,-0.14166 2.74645,0.0168 3.96687,0.60529 1.22042,0.58854 2.24609,1.63248 2.66986,2.91942 0.0731,0.22198 0.12854,0.45012 0.21695,0.66645 0.0884,0.21634 0.21375,0.42416 0.39936,0.56618 0.1308,0.10008 0.28651,0.16356 0.44581,0.20534 0.15931,0.0418 0.32319,0.0628 0.48634,0.0854 0.16314,0.0225 0.3268,0.0468 0.48435,0.0948 0.15755,0.048 0.30985,0.12079 0.43244,0.23077 0.12292,0.11028 0.21206,0.25456 0.27373,0.40775 0.0617,0.1532 0.097,0.3157 0.12402,0.47862 0.0539,0.32585 0.0774,0.66394 0.21856,0.96256 0.12515,0.26481 0.33497,0.48021 0.55812,0.66992 0.22316,0.18971 0.46367,0.35938 0.6745,0.5627 0.35151,0.33899 0.61279,0.7661 0.78248,1.22401 0.16969,0.45791 0.24959,0.94629 0.26463,1.4344 0.0301,0.97621 -0.19508,1.94058 -0.4308,2.88839 -0.31813,1.27917 -0.66136,2.56155 -1.22853,3.75143 -0.56717,1.18988 -1.37515,2.29297 -2.46934,3.02799 -1.15942,0.77884 -2.58913,1.10343 -3.98491,1.052 -1.39577,-0.0514 -2.761,-0.46229 -4.02713,-1.052 -1.53524,-0.71506 -2.99036,-1.74557 -3.82264,-3.22056 -0.41615,-0.73749 -0.66476,-1.57668 -0.66128,-2.42348 0.003,-0.84679 0.2668,-1.69909 0.78606,-2.368 0.46218,-0.59539 1.12158,-1.03499 1.84893,-1.23262"
       id="path56"
       inkscape:path-effect="#path-effect57"
       inkscape:original-d="m 650.20807,161.47347 c 1.70615,-3.22827 4.30296,-4.14099 7.39573,-5.54679 1.25459,-0.57027 2.39048,-1.41314 3.69787,-1.84894 3.98788,-1.32929 10.42251,-1.05153 14.17515,0.61631 0.41978,0.18657 0.24882,0.957 0.61631,1.23263 0.51972,0.38978 1.38956,0.15693 1.84894,0.61631 0.45937,0.45937 0.28206,1.29186 0.61631,1.84893 0.29895,0.49826 0.93366,0.73436 1.23262,1.23262 1.0061,1.67683 0.61631,3.74454 0.61631,5.5468 0,3.22844 0.076,5.83595 -3.69787,6.77942 -0.58052,0.14513 -7.40405,0.30399 -8.01204,0 -2.10485,-1.05242 -4.76983,-5.86812 -3.69786,-8.01204 0.31371,-0.62743 1.34849,-0.98241 1.84893,-1.23262" />
    <path
       style="opacity:1;fill:none;fill-opacity:1;stroke:#382d89;stroke-width:4;stroke-linecap:round;stroke-dasharray:none;stroke-opacity:1"
       d="m 649.59176,181.81174 c 2.35511,-2.60234 5.70143,-4.28473 9.19491,-4.62281 3.49348,-0.33808 7.10032,0.67142 9.91073,2.77387 0.93422,0.69888 1.78555,1.51698 2.46524,2.46525 1.24091,1.73125 1.86835,3.83731 2.15774,5.9476 0.28939,2.11029 0.26075,4.24909 0.30751,6.37862 0.0457,2.07924 0.15197,4.23048 -0.61631,6.16311 -0.61801,1.55461 -1.78584,2.8684 -3.2093,3.74732 -1.42346,0.87893 -3.09203,1.33194 -4.76392,1.39134 -3.34379,0.11879 -6.58967,-1.30521 -9.28349,-3.28973 -2.38222,-1.75497 -4.46617,-4.02495 -5.5468,-6.77942 -0.31037,-0.79111 -0.53628,-1.61921 -0.61631,-2.46525 -0.14626,-1.54617 0.21047,-3.1359 1.00335,-4.47133 0.79288,-1.33542 2.01783,-2.40967 3.44532,-3.02145 1.4275,-0.61179 3.05019,-0.75796 4.56404,-0.41112 1.51385,0.34683 2.91105,1.18487 3.92982,2.35711"
       id="path57"
       inkscape:path-effect="#path-effect58"
       inkscape:original-d="m 649.59176,181.81174 c 4.3845,-2.05495 14.3656,-4.21896 19.10564,-1.84894 1.03944,0.51972 1.69998,1.59066 2.46524,2.46525 3.18315,3.63788 2.46525,7.79264 2.46525,12.32622 0,1.66755 0.75382,4.79298 -0.61631,6.16311 -2.27551,2.2755 -14.00272,2.49973 -17.25671,1.84893 -3.07885,-0.61577 -5.00213,-4.05609 -5.5468,-6.77942 -0.16612,-0.83059 -1.21526,-1.8663 -0.61631,-2.46525 3.01992,-3.01992 8.64215,-5.54679 12.94253,-5.54679" />
    <path
       style="opacity:1;fill:none;fill-opacity:1;stroke:#382d89;stroke-width:4;stroke-linecap:round;stroke-dasharray:none;stroke-opacity:1"
       d="m 656.37118,234.81448 c -1.57594,-0.18334 -3.09456,-0.83417 -4.31418,-1.84893 -1.37153,-1.14115 -2.35134,-2.72905 -2.82594,-4.44895 -0.47461,-1.71991 -0.45173,-3.56456 -0.005,-5.29189 0.8937,-3.45465 3.44701,-6.33314 6.52869,-8.13218 2.25871,-1.3186 4.80421,-2.11244 7.39573,-2.46525 2.54585,-0.34659 5.16774,-0.27048 7.64393,0.41501 2.4762,0.6855 4.80238,1.99849 6.53122,3.89917 0.99977,1.09914 1.78796,2.3754 2.46525,3.69787 0.62699,1.22424 1.1732,2.53638 1.1904,3.91173 0.009,0.68768 -0.11957,1.38252 -0.42075,2.00079 -0.30118,0.61827 -0.78069,1.15667 -1.38596,1.48321 -0.40505,0.21852 -0.86244,0.34286 -1.23262,0.61631 -0.35452,0.26188 -0.60131,0.63975 -0.8656,0.99248 -0.26429,0.35273 -0.57108,0.70053 -0.98334,0.85645 -0.38785,0.14668 -0.81893,0.10466 -1.22934,0.0454 -0.4104,-0.0593 -0.8307,-0.13346 -1.2359,-0.0454 -0.43094,0.0936 -0.80016,0.36096 -1.19851,0.55017 -0.19917,0.0946 -0.4099,0.17083 -0.62927,0.19311 -0.21937,0.0223 -0.44898,-0.0126 -0.63747,-0.12697 -0.12708,-0.0771 -0.23126,-0.18729 -0.3205,-0.30619 -0.0892,-0.1189 -0.16482,-0.24732 -0.24594,-0.3719 -0.0811,-0.12457 -0.16873,-0.24642 -0.27796,-0.34726 -0.10923,-0.10084 -0.24203,-0.18028 -0.38822,-0.20727 -0.10382,-0.0192 -0.21095,-0.0115 -0.31498,0.006 -0.10404,0.018 -0.20604,0.046 -0.30933,0.0679 -0.10329,0.0218 -0.20892,0.0375 -0.31424,0.0301 -0.10531,-0.007 -0.21099,-0.0393 -0.29407,-0.10439 -0.0862,-0.0676 -0.14355,-0.16792 -0.17057,-0.27411 -0.027,-0.1062 -0.0253,-0.21815 -0.008,-0.32636 0.0346,-0.21641 0.12944,-0.41858 0.1786,-0.63215 0.093,-0.40412 0.0124,-0.84519 -0.21767,-1.19023 -0.23002,-0.34503 -0.60614,-0.58914 -1.01495,-0.6587"
       id="path58"
       inkscape:path-effect="#path-effect59"
       inkscape:original-d="m 656.37118,234.81448 c -0.8208,-1.39177 -3.20786,-0.74262 -4.31418,-1.84893 -4.80623,-4.80623 -1.03072,-14.49546 3.69787,-17.87302 2.14333,-1.53095 4.96145,-1.85668 7.39573,-2.46525 6.5963,-1.64907 9.99513,-0.91084 14.17515,4.31418 0.75829,0.94786 2.17907,2.55316 2.46525,3.69787 0.21484,0.85935 -0.19152,6.75854 -0.61631,7.39573 -0.25482,0.38222 -0.86513,0.34069 -1.23262,0.61631 -0.69728,0.52296 -1.02207,1.57331 -1.84894,1.84893 -0.77958,0.25986 -1.68566,-0.25986 -2.46524,0 -0.56637,0.18879 -1.60129,1.19228 -2.46525,0.61631 -0.48347,-0.32231 -0.7129,-0.97276 -1.23262,-1.23262 -0.36749,-0.18375 -0.94209,0.29053 -1.23262,0 -0.29053,-0.29053 0.18375,-0.86512 0,-1.23262 -0.25352,-0.50705 -1.23262,0.13645 -1.23262,-1.84893" />
    <path
       style="opacity:1;fill:none;fill-opacity:1;stroke:#382d89;stroke-width:4;stroke-linecap:round;stroke-dasharray:none;stroke-opacity:1"
       d="m 395.05533,192.90533 c -3.77265,2.44885 -8.6351,3.14349 -12.94253,1.84894 -3.87143,-1.16351 -7.23424,-3.88861 -9.24466,-7.39574 -0.97366,-1.69853 -1.6491,-3.62704 -1.54799,-5.58224 0.0506,-0.9776 0.29818,-1.95004 0.76686,-2.80946 0.46868,-0.85941 1.16243,-1.60236 2.01375,-2.08558 0.32557,-0.1848 0.67173,-0.33117 0.99804,-0.51466 0.32632,-0.18349 0.63805,-0.40999 0.85089,-0.71796 0.26168,-0.37864 0.35595,-0.85308 0.61631,-1.23263 0.18932,-0.27598 0.46021,-0.49009 0.75855,-0.64175 0.29834,-0.15165 0.62408,-0.24333 0.95316,-0.30427 0.65816,-0.12187 1.33678,-0.1243 1.98616,-0.2866 0.51661,-0.12912 1.00303,-0.35658 1.51095,-0.51653 0.50791,-0.15994 1.05997,-0.25084 1.5706,-0.0998 0.51408,0.15209 0.93471,0.53816 1.22577,0.98838 0.29105,0.45022 0.46638,0.96421 0.62317,1.47687 0.3388,1.10777 0.60566,2.24614 0.65273,3.40361 0.0471,1.15747 -0.13403,2.34 -0.65273,3.37581 -0.52942,1.05719 -1.40805,1.93583 -2.46525,2.46524"
       id="path59"
       inkscape:path-effect="#path-effect60"
       inkscape:original-d="m 395.05533,192.90533 c -4.30243,1.27088 -8.49854,1.84894 -12.94253,1.84894 -5.62376,0 -8.62139,-1.78628 -9.24466,-7.39574 -0.40497,-3.6447 -1.74347,-7.5012 1.23262,-10.47728 0.52376,-0.52377 1.32517,-0.70886 1.84893,-1.23262 0.32483,-0.32483 0.2576,-0.94566 0.61631,-1.23263 4.44784,-3.55826 0.82421,-0.27473 3.69787,-1.23262 0.64995,-0.21665 2.29343,-1.40443 3.08155,-0.61631 0.14084,0.14084 1.77853,2.25403 1.84894,2.46525 0.32761,0.98284 0.44303,5.67184 0,6.77942 -0.25468,0.63667 -1.87952,1.87951 -2.46525,2.46524" />
    <path
       style="opacity:1;fill:none;fill-opacity:1;stroke:#382d89;stroke-width:4;stroke-linecap:round;stroke-dasharray:none;stroke-opacity:1"
       d="m 395.05533,227.41875 c -0.53746,2.91034 -2.18342,5.6019 -4.52921,7.40639 -2.34579,1.80449 -5.36948,2.70504 -8.32031,2.47805 -2.95084,-0.22699 -5.80122,-1.57939 -7.84343,-3.72142 -2.04221,-2.14203 -3.25716,-5.05366 -3.34318,-8.01196 -0.0179,-0.61609 0.0112,-1.23268 0,-1.84893 -0.0382,-2.10802 -0.54598,-4.1796 -0.70873,-6.28167 -0.0814,-1.05103 -0.0756,-2.11491 0.11729,-3.15129 0.19292,-1.03637 0.57881,-2.04725 1.20775,-2.89326 0.81181,-1.09199 2.00262,-1.86895 3.28775,-2.31606 1.28513,-0.44711 2.66333,-0.57934 4.02342,-0.53881 2.72016,0.081 5.38058,0.83546 8.09661,1.00594 0.49541,0.0311 1.00153,0.0445 1.46795,0.21436 0.2332,0.0849 0.45421,0.20953 0.63301,0.38167 0.17879,0.17214 0.31387,0.39357 0.36428,0.63659 0.0635,0.30595 -0.008,0.62131 -0.0597,0.92948 -0.0258,0.15409 -0.0466,0.30982 -0.0429,0.466 0.004,0.15619 0.0328,0.31368 0.10263,0.45345 0.0655,0.13114 0.1647,0.24283 0.27355,0.341 0.10885,0.0982 0.22801,0.18412 0.34276,0.27532 1.10793,0.88052 1.78206,2.28192 1.78117,3.69713 -8.9e-4,1.41521 -0.6759,2.81475 -1.78117,3.6986 -0.68059,0.54425 -1.51355,0.89588 -2.37826,1.00397 -0.86472,0.10809 -1.7586,-0.0277 -2.55222,-0.38766"
       id="path60"
       inkscape:path-effect="#path-effect61"
       inkscape:original-d="m 395.05533,227.41875 c -5.1348,-0.74413 -21.31946,3.58439 -24.03613,-1.84894 -0.27562,-0.55124 0.10132,-1.241 0,-1.84893 -0.62586,-3.7552 -1.61111,-8.76233 0.61631,-12.32622 1.00469,-1.60749 12.85486,-2.35951 15.40778,-1.84893 0.9009,0.18018 2.05437,0.41087 2.46524,1.23262 0.27562,0.55125 -0.14948,1.25102 0,1.84893 0.0705,0.28186 0.52444,0.34069 0.61631,0.61632 0.35295,1.05885 0.77584,6.61989 0,7.39573 -1.08002,1.08002 -3.53693,0.61631 -4.93048,0.61631" />
    <path
       style="opacity:1;fill:none;fill-opacity:1;stroke:#382d89;stroke-width:4;stroke-linecap:round;stroke-dasharray:none;stroke-opacity:1"
       d="m 441.27865,70.25945 c -0.87574,0.453125 -1.88673,0.640662 -2.86673,0.531774 -0.97999,-0.108889 -1.92515,-0.513775 -2.68007,-1.148085 -0.9421,-0.79159 -1.57081,-1.921377 -1.85753,-3.118024 -0.28672,-1.196648 -0.24475,-2.457243 0.009,-3.661396 0.41994,-1.995898 1.41437,-3.849888 2.74133,-5.398805 1.32696,-1.548917 2.97921,-2.800706 4.76476,-3.786488 3.5711,-1.971564 7.61649,-2.876888 11.59955,-3.757238 0.92009,-0.203362 1.8452,-0.407331 2.78614,-0.457936 0.94094,-0.05061 1.90701,0.05892 2.76066,0.457936 1.03809,0.485224 1.84836,1.371537 2.42421,2.362227 0.57585,0.990691 0.93783,2.088996 1.27366,3.184572 0.28004,0.913556 0.54643,1.840817 0.60822,2.794329 0.0618,0.953512 -0.0954,1.946247 -0.60822,2.75247 -0.19979,0.314089 -0.4487,0.593385 -0.67793,0.886686 -0.22922,0.293302 -0.44229,0.607375 -0.5547,0.962247 -0.13044,0.411801 -0.11799,0.852852 -0.15783,1.282977 -0.0199,0.215062 -0.0535,0.430199 -0.12393,0.634383 -0.0704,0.204185 -0.17916,0.397877 -0.33455,0.547884 -0.16624,0.16048 -0.3783,0.264726 -0.59262,0.351071 -0.21433,0.08635 -0.43545,0.157774 -0.64,0.26524 -0.46066,0.24202 -0.80733,0.649122 -1.17121,1.021113 -0.18193,0.185995 -0.37173,0.366034 -0.58543,0.514453 -0.2137,0.14842 -0.45296,0.26495 -0.7086,0.313367 -0.40458,0.07663 -0.82135,-0.02027 -1.23262,0 -0.39942,0.01968 -0.78506,0.149405 -1.15601,0.298803 -0.37095,0.149398 -0.73482,0.320173 -1.11974,0.428639 -0.38491,0.108465 -0.79886,0.152147 -1.1837,0.04342 -0.19242,-0.05437 -0.37514,-0.146923 -0.52598,-0.278175 -0.15085,-0.131253 -0.26898,-0.301872 -0.32875,-0.492682 -0.0618,-0.197214 -0.0603,-0.408542 -0.0437,-0.614536 0.0166,-0.205993 0.0479,-0.411465 0.0437,-0.618086 -0.009,-0.466438 -0.19942,-0.912193 -0.44168,-1.310898 -0.24226,-0.398704 -0.53833,-0.762119 -0.79094,-1.154346 -0.6465,-1.003822 -0.9971,-2.195716 -0.9971,-3.389711 0,-1.193994 0.3506,-2.385888 0.9971,-3.38971"
       id="path61"
       inkscape:path-effect="#path-effect62"
       inkscape:original-d="m 441.27865,70.25945 c -0.52963,0 -4.54069,0.38979 -5.5468,-0.616311 -1.04252,-1.042528 -1.67507,-5.388592 -1.84893,-6.77942 -1.59185,-12.734824 9.44553,-12.942531 19.10564,-12.942531 1.84893,0 3.79275,-0.584683 5.5468,0 1.76885,0.589616 3.41761,3.865263 3.69787,5.546799 0.30396,1.823776 0.40109,3.741895 0,5.546799 -0.16069,0.723075 -0.94084,1.16811 -1.23263,1.848933 -0.33366,0.778551 -0.18051,1.738914 -0.61631,2.465244 -0.23634,0.393907 -0.8504,0.361497 -1.23262,0.616311 -0.85467,0.569779 -1.5465,1.389561 -2.46524,1.848933 -0.3675,0.183748 -0.83402,-0.09965 -1.23262,0 -1.04424,0.261058 -3.33135,1.474244 -4.31418,0 -0.22791,-0.341868 0.0996,-0.834016 0,-1.232622 -0.22283,-0.891311 -1.0098,-1.573933 -1.23262,-2.465244 -0.50635,-2.02538 0,-4.669457 0,-6.779421" />
    <path
       style="opacity:1;fill:none;fill-opacity:1;stroke:#382d89;stroke-width:4;stroke-linecap:round;stroke-dasharray:none;stroke-opacity:1"
       d="m 478.87362,55.467987 c -1.08242,-1.71774 -1.91555,-3.592291 -2.46524,-5.546799 -1.06982,-3.803929 -1.04595,-7.899347 0,-11.709908 0.34401,-1.253284 0.79504,-2.474107 1.23262,-3.697866 0.53379,-1.492822 1.05056,-2.997686 1.76548,-4.412724 0.71493,-1.415039 1.64118,-2.748376 2.87568,-3.743092 1.23451,-0.994716 2.80089,-1.629945 4.38454,-1.555804 0.79183,0.03707 1.57811,0.251463 2.26528,0.64665 0.68716,0.395187 1.27243,0.973085 1.65155,1.669239 0.21984,0.403682 0.37058,0.844151 0.61631,1.232622 0.43195,0.682876 1.12254,1.154264 1.80468,1.587383 0.68213,0.433119 1.39094,0.861205 1.89319,1.494171 0.43012,0.542064 0.68135,1.200833 0.9257,1.848233 0.24435,0.6474 0.4946,1.30639 0.92323,1.849633 0.36023,0.456562 0.83135,0.811668 1.23262,1.232622 0.86637,0.908878 1.3933,2.14383 1.40735,3.399403 0.014,1.255574 -0.49558,2.51669 -1.40735,3.380018 -0.42388,0.401361 -0.93738,0.729036 -1.23262,1.232622 -0.16478,0.281069 -0.25071,0.600425 -0.32793,0.916955 -0.0772,0.31653 -0.14858,0.637683 -0.28838,0.931978 -0.16689,0.351315 -0.43051,0.656079 -0.75412,0.871823 -0.32362,0.215745 -0.70633,0.34187 -1.09481,0.360799 -0.0199,0.472844 -0.24999,0.93298 -0.61631,1.232622 -0.26117,0.213629 -0.59133,0.346666 -0.92867,0.353387 -0.33735,0.0067 -0.67921,-0.117302 -0.92027,-0.353387 -0.23612,-0.231241 -0.3647,-0.551702 -0.44024,-0.873442 -0.0755,-0.321739 -0.10436,-0.652875 -0.17607,-0.975491 -0.15008,-0.675163 -0.48339,-1.294454 -0.83949,-1.887381 -0.3561,-0.592926 -0.7407,-1.173186 -1.00944,-1.810485 -0.57386,-1.360902 -0.57386,-2.953275 0,-4.314177"
       id="path62"
       inkscape:path-effect="#path-effect63"
       inkscape:original-d="m 478.87362,55.467987 c -0.82175,-1.848933 -1.97451,-3.58389 -2.46524,-5.546799 -0.33235,-1.329413 -0.21918,-10.285246 0,-11.709908 0.19757,-1.284189 0.56414,-2.583727 1.23262,-3.697866 1.54937,-2.582282 9.0869,-9.323544 12.94253,-7.395731 0.41088,0.205437 0.29149,0.907797 0.61631,1.232622 4.84798,4.847979 -1.35044,-2.97642 3.69787,3.081554 3.33969,4.007635 -0.53358,-0.272991 1.84893,3.697866 0.29896,0.498258 1.01682,0.693118 1.23262,1.232622 0.36577,0.914423 0.40167,5.775247 0,6.779421 -0.2158,0.539504 -0.93366,0.734364 -1.23262,1.232622 -0.33424,0.557069 -0.21048,1.341642 -0.61631,1.848933 -0.46272,0.5784 -1.25636,0.788193 -1.84893,1.232622 -1.22095,-0.06152 -0.29149,0.907797 -0.61631,1.232622 -0.0616,0.06163 -1.78731,0.06163 -1.84894,0 -1.55674,-1.556742 -0.23682,-0.710475 -0.61631,-1.848933 -0.43142,-1.294253 -1.41751,-2.403613 -1.84893,-3.697866 -0.3951,-1.185293 0,-3.036997 0,-4.314177" />
    <path
       style="opacity:1;fill:none;fill-opacity:1;stroke:#382d89;stroke-width:4;stroke-linecap:round;stroke-dasharray:none;stroke-opacity:1"
       d="m 519.55015,48.688567 c -1.88356,-3.285996 -3.33781,-6.817744 -4.31418,-10.477287 -0.46485,-1.742299 -0.82343,-3.529381 -0.80416,-5.332522 0.0193,-1.803141 0.43587,-3.634054 1.42047,-5.144764 1.31027,-2.010389 3.52115,-3.295073 5.8238,-3.970545 2.30265,-0.675473 4.72394,-0.806784 7.11873,-0.959943 2.05391,-0.131358 4.12432,-0.281334 6.16311,0 2.41309,0.332984 4.76541,1.29517 6.58865,2.910627 1.82323,1.615458 3.08339,3.905417 3.27233,6.334037 0.0638,0.81963 0.009,1.643182 0,2.465244 -0.0184,1.763991 0.17774,3.523643 0.20221,5.28756 0.0245,1.763918 -0.1316,3.564876 -0.81852,5.189727 -0.69106,1.634624 -1.95801,3.0657 -3.60206,3.734014 -0.82203,0.334157 -1.72677,0.472974 -2.60803,0.369171 -0.88125,-0.103802 -1.73651,-0.453663 -2.41827,-1.02163 -0.79333,-0.660911 -1.32169,-1.577437 -1.84893,-2.465244 -1.61246,-2.715198 -3.41539,-5.483115 -3.69787,-8.628354 -0.13111,-1.459836 0.0817,-2.949444 0.61631,-4.314177"
       id="path63"
       inkscape:path-effect="#path-effect64"
       inkscape:original-d="m 519.55015,48.688567 c -4.60821,-7.680347 -3.26025,-3.626726 -4.31418,-10.477287 -0.54387,-3.53518 -1.55977,-7.213163 0.61631,-10.477286 3.04765,-4.571471 7.99076,-4.930488 12.94253,-4.930488 2.05437,0 4.15766,-0.445656 6.16311,0 3.47153,0.771451 8.9907,5.763547 9.86098,9.244664 0.1993,0.797213 -0.0744,1.646871 0,2.465244 0.32378,3.561589 1.38127,7.147987 -0.61631,10.477287 -1.69907,2.831775 -5.5138,3.860195 -8.62836,3.081555 -0.99651,-0.249129 -1.20725,-1.663148 -1.84893,-2.465244 -2.01907,-2.523839 -3.69787,-5.263959 -3.69787,-8.628354 0,-0.891993 -0.49996,-4.314177 0.61631,-4.314177" />
    <path
       style="opacity:1;fill:none;fill-opacity:1;stroke:#382d89;stroke-width:4;stroke-linecap:round;stroke-dasharray:none;stroke-opacity:1"
       d="m 568.85502,56.084298 c -2.4547,-1.59372 -4.56939,-3.708406 -6.16311,-6.16311 -1.41915,-2.185831 -2.43162,-4.664265 -2.72306,-7.254038 -0.29144,-2.589772 0.16642,-5.292693 1.49044,-7.537425 0.92934,-1.5756 2.26514,-2.89829 3.80791,-3.88116 1.54278,-0.98287 3.28882,-1.630582 5.08588,-1.97228 3.59413,-0.683398 7.32965,-0.147194 10.82816,0.922952 2.25563,0.689967 4.46784,1.613846 6.35863,3.024118 1.89078,1.410272 3.44974,3.342273 4.11866,5.604236 0.58701,1.984975 0.46846,4.098444 0.61631,6.16311 0.0884,1.234586 0.27231,2.490445 0,3.697866 -0.25507,1.130992 -0.91165,2.158494 -1.79627,2.90792 -0.88463,0.749426 -1.98918,1.224344 -3.13422,1.406256 -0.81456,0.129409 -1.64843,0.114311 -2.46524,0 -3.33374,-0.466547 -6.37132,-2.68669 -7.82799,-5.721426 -1.45668,-3.034736 -1.28894,-6.793428 0.43226,-9.686348"
       id="path64"
       inkscape:path-effect="#path-effect65"
       inkscape:original-d="m 568.85502,56.084298 c -2.52503,-2.020028 -4.4465,-3.220351 -6.16311,-6.16311 -2.0391,-3.495615 -3.09376,-11.069174 -1.23262,-14.791463 3.23974,-6.479465 13.70335,-6.736069 19.72195,-4.930488 4.09959,1.229877 8.31808,5.029676 10.47729,8.628354 1.01302,1.688374 0.61631,4.297669 0.61631,6.16311 0,1.232622 0.38979,2.528498 0,3.697866 -0.85895,2.576867 -2.3621,4.314176 -4.93049,4.314176 -0.64746,0 -1.9212,0.181346 -2.46524,0 -3.64883,-1.216276 -7.39573,-11.519175 -7.39573,-15.407774" />
    <path
       style="opacity:1;fill:none;fill-opacity:1;stroke:#382d89;stroke-width:4;stroke-linecap:round;stroke-dasharray:none;stroke-opacity:1"
       d="m 598.43795,77.038871 c 0.6547,-6.064699 3.5531,-11.861501 8.01204,-16.024085 1.49423,-1.394917 3.17847,-2.623163 5.08573,-3.358587 1.90727,-0.735424 4.05726,-0.950544 6.00787,-0.339279 1.2063,0.378019 2.29968,1.055259 3.29841,1.830233 0.99873,0.774974 1.91371,1.65108 2.8647,2.483944 0.65728,0.575635 1.33968,1.138975 1.84893,1.848933 0.8734,1.217636 1.16291,2.781097 1.06437,4.276342 -0.0986,1.495245 -0.55643,2.942235 -1.06437,4.352011 -1.10821,3.07584 -2.55577,6.172054 -5.08364,8.245399 -1.26394,1.036673 -2.78614,1.785801 -4.40513,2.011841 -1.61899,0.226039 -3.33317,-0.09548 -4.68638,-1.012575 -1.61842,-1.096839 -2.61981,-2.99362 -2.78863,-4.9414 -0.16881,-1.94778 0.45114,-3.922937 1.55601,-5.535887 1.66666,-2.433077 4.45744,-4.061034 7.39573,-4.314176"
       id="path65"
       inkscape:path-effect="#path-effect66"
       inkscape:original-d="m 598.43795,77.038871 c -0.60819,-7.005324 2.38883,-12.007502 8.01204,-16.024085 3.05679,-2.183418 7.26191,-3.697866 11.0936,-3.697866 3.09841,0 4.46045,2.270986 6.16311,4.314177 0.55798,0.669578 1.36546,1.123722 1.84893,1.848933 1.26606,1.899081 0.9895,6.649359 0,8.628353 -1.79638,3.592763 -9.41539,10.831253 -14.17515,9.244665 -0.95811,-0.319371 -1.66304,-9.903393 -1.23262,-10.477287 1.74374,-2.324994 5.51761,-2.436059 7.39573,-4.314176" />
    <path
       style="opacity:1;fill:none;fill-opacity:1;stroke:#382d89;stroke-width:4;stroke-linecap:round;stroke-dasharray:none;stroke-opacity:1"
       d="m 639.11447,96.144511 c -0.73601,-3.307636 -1.55813,-6.596112 -2.46524,-9.860975 -0.67351,-2.424105 -1.40103,-4.895821 -1.23968,-7.406573 0.0807,-1.255375 0.39087,-2.507646 1.00732,-3.604211 0.61646,-1.096566 1.55091,-2.030774 2.6976,-2.548058 0.77492,-0.349573 1.62271,-0.503055 2.46525,-0.616311 3.53284,-0.474892 7.24369,-0.267514 10.47728,1.232622 1.08829,0.504881 2.1076,1.148449 3.08156,1.848933 1.76895,1.27225 3.41152,2.753345 4.66255,4.537365 1.25102,1.784019 2.0974,3.888956 2.18739,6.06604 0.09,2.177084 -0.62284,4.420464 -2.1294,5.994647 -0.75329,0.787091 -1.69409,1.39855 -2.72927,1.738177 -1.03518,0.339627 -2.16359,0.403525 -3.22389,0.1531 -0.20618,-0.04869 -0.4109,-0.109206 -0.62199,-0.127107 -0.21109,-0.0179 -0.43369,0.0106 -0.61063,0.127107 -0.0977,0.06435 -0.17784,0.153189 -0.24103,0.251671 -0.0632,0.09848 -0.11003,0.206637 -0.14905,0.316949 -0.078,0.220624 -0.12617,0.452455 -0.22624,0.664002 -0.133,0.281169 -0.35662,0.517317 -0.62621,0.672443 -0.2696,0.155126 -0.5837,0.229639 -0.8946,0.22022 -0.31089,-0.0094 -0.61791,-0.101847 -0.88654,-0.25864 -0.26864,-0.156792 -0.49888,-0.377103 -0.6742,-0.634023 -0.25923,-0.379875 -0.39532,-0.8293 -0.61631,-1.232622 -0.38916,-0.710241 -1.02646,-1.251302 -1.6932,-1.711022 -0.66674,-0.459719 -1.37869,-0.856692 -2.00467,-1.370533 -1.54272,-1.266355 -2.47735,-3.242737 -2.47735,-5.238643 0,-1.995906 0.93463,-3.972288 2.47735,-5.238643"
       id="path66"
       inkscape:path-effect="#path-effect67"
       inkscape:original-d="m 639.11447,96.144511 c -3.04929,-6.860913 -2.46524,-3.523479 -2.46524,-9.860975 0,-3.502965 -0.61449,-10.992396 2.46524,-13.558842 0.65072,-0.54226 1.6435,-0.410874 2.46525,-0.616311 4.42163,-1.105408 6.00798,-0.392581 10.47728,1.232622 1.48815,0.541145 2.20531,0.388521 3.08156,1.848933 2.04416,3.406926 2.1935,15.919739 -1.23262,18.489329 -0.3287,0.246525 -0.89076,-0.227912 -1.23262,0 -0.38222,0.254813 -0.2341,0.977809 -0.61632,1.232622 -0.0848,0.05654 -2.99674,0.05654 -3.08155,0 -0.38222,-0.254813 -0.29149,-0.907797 -0.61631,-1.232622 -1.04148,-1.041474 -2.95247,-1.590754 -3.69787,-3.081555 -0.71869,-1.43738 -1.26978,-9.207503 0,-10.477286" />
    <path
       style="opacity:1;fill:#87d0df;fill-opacity:1;stroke:#382d89;stroke-width:4;stroke-linecap:round;stroke-dasharray:none;stroke-opacity:1"
       d="m 432.03399,864.06798 c -6.96676,7.00239 -11.22332,16.63565 -11.70991,26.50137 -0.53468,10.84063 3.28721,21.38571 7.39573,31.43186 6.68075,16.33577 14.80825,32.96665 28.94271,43.5358 7.06723,5.28458 15.56371,8.84816 24.37701,9.2934 8.8133,0.44523 17.91082,-2.40531 24.33546,-8.45481 0.4231,-0.3984 0.83423,-0.80952 1.23263,-1.23262"
       id="path67"
       inkscape:path-effect="#path-effect68"
       inkscape:original-d="m 432.03399,864.06798 c -3.49243,9.4501 -7.60117,18.28389 -11.70991,26.50137 -4.10874,8.21748 4.93049,20.74914 7.39573,31.43186 2.46525,10.68272 51.77012,29.17205 77.65518,44.37439 25.88506,15.20234 0.82175,-0.41088 1.23263,-1.23262" />
    <path
       style="opacity:1;fill:#87d0df;fill-opacity:1;stroke:#382d89;stroke-width:4.93049;stroke-linecap:round;stroke-dasharray:none;stroke-opacity:1"
       d="m 446.44115,1036.5999 c 6.24974,-10.4572 6.27918,-10.556 5.6014,-18.7975 l -0.68136,-8.285 14.09867,-11.70994 c 8.85654,-7.35597 19.24191,-14.5303 27.93137,-19.29531 l 13.8327,-7.58539 6.16311,-17.23741 c 4.73297,-13.23748 7.22569,-18.40321 10.74225,-22.26142 5.3476,-5.86714 9.43046,-13.56347 15.1595,-28.57611 4.69446,-12.30158 7.49665,-31.4618 6.37721,-43.60477 l -0.6919,-7.50529 12.39859,-20.18669 c 6.81923,-11.10268 13.77372,-23.57089 15.45442,-27.70713 1.68071,-4.13624 4.73463,-10.84611 6.7865,-14.91083 3.43869,-6.81202 3.67688,-8.10135 3.0436,-16.47485 -0.72981,-9.6498 -2.28288,-12.54388 -8.44015,-15.72793 -10.16047,-5.25419 -34.63534,14.10127 -40.97086,32.40098 -1.58608,4.58128 -1.60862,4.5122 -1.4954,-4.58236 0.0632,-5.07856 -0.50494,-12.50543 -1.26259,-16.50416 -1.35911,-7.17315 -1.30651,-7.4328 3.93159,-19.40975 l 5.30913,-12.13934 -2.2543,-14.48735 c -1.72743,-11.1014 -1.97903,-16.0813 -1.07649,-21.30728 l 1.17782,-6.81992 12.01931,0.48276 c 11.33981,0.45547 12.43304,0.27623 19.3374,-3.17037 4.02495,-2.00922 12.44048,-4.63281 18.70119,-5.8302 10.26983,-1.96415 11.77673,-1.99488 15.40777,-0.31426 2.21357,1.02454 7.33882,2.80752 11.38945,3.96218 7.63252,2.17569 11.04489,4.96709 22.21815,18.17492 l 4.93049,5.8283 22.7548,2.51863 22.75481,2.51863 18.53803,10.01463 18.53803,10.01463 -0.37367,9.98875 -0.37368,9.98874 13.71279,15.75194 c 11.53537,13.25072 19.6598,20.68831 51.16521,46.83964 l 37.45241,31.08769 23.16578,12.23382 23.16579,12.23381 61.6311,12.85026 61.63109,12.85026 25.57689,-0.20886 25.5769,-0.20886 v 10.96883 10.96885 l -35.4379,6.6814 -35.43784,6.6814 h -49.61347 -49.61347 l 0.002,4.31418 c 0.003,6.03196 3.45528,83.47605 4.27165,95.83635 l 0.67166,10.1691 H 660.74873 440.15838 Z"
       id="path70" />
    <path
       style="opacity:1;fill:#87d0df;fill-opacity:1;stroke:#382d89;stroke-width:4.93049;stroke-linecap:round;stroke-dasharray:none;stroke-opacity:1"
       d="m 255.10272,922.46144 c -11.53651,-4.3087 -15.43429,-6.30632 -15.66537,-8.02854 -0.22629,-1.68656 4.07815,-5.38837 16.28217,-14.00258 13.34785,-9.42159 16.59957,-12.29016 16.63986,-14.67922 0.0731,-4.33581 -18.31015,-139.65545 -28.97585,-213.29197 -5.05195,-34.87889 -9.18536,-64.02772 -9.18536,-64.77519 0,-2.03073 9.02892,-6.0478 33.14787,-14.74785 11.93709,-4.30589 35.41095,-13.09538 52.16414,-19.53221 26.99129,-10.37047 32.37803,-12.9188 47.29895,-22.37597 l 16.83862,-10.67265 -0.81673,5.44632 c -0.69807,4.65503 -0.1185,7.05616 3.98904,16.52658 2.64317,6.09414 7.19808,14.63185 10.12202,18.97269 6.26909,9.30702 23.70665,27.66448 28.79752,30.3167 l 3.5666,1.85811 -6.53693,3.57474 c -5.67637,3.10415 -7.84971,3.57719 -16.50912,3.5933 -5.48471,0.0102 -12.17037,0.78359 -14.857,1.71863 -3.25086,1.1314 -5.85464,1.33135 -7.78413,0.59776 -1.59464,-0.60628 -5.60998,-1.10232 -8.92298,-1.10232 -5.74346,0 -6.19947,0.25555 -9.80372,5.49414 -5.24314,7.62065 -4.35278,13.64924 2.89114,19.57574 4.59513,3.75943 9.12072,6.04861 12.48041,6.31298 0.67794,0.0533 5.67006,2.99818 11.09359,6.54409 5.42354,3.54591 10.2965,6.44718 10.82881,6.44728 0.53231,8e-5 2.19635,-0.76689 3.69787,-1.7044 1.541,-0.96216 8.06218,-2.05358 14.97263,-2.50591 l 12.2426,-0.80135 5.90977,5.82091 5.90977,5.82091 23.75988,-0.23287 23.75989,-0.23285 2.54431,16.15785 2.54431,16.15785 -10.85563,30.6731 -10.85562,30.67311 -12.28066,17.6689 c -11.29758,16.25449 -12.3871,18.33518 -13.61035,25.99248 -0.91839,5.74891 -3.40029,12.45222 -8.02357,21.6708 -3.68163,7.34097 -7.33711,15.9017 -8.12327,19.02385 -1.03323,4.10334 -3.18791,7.46533 -7.77427,12.13037 -3.96125,4.02921 -6.91716,8.36842 -7.86825,11.55041 -1.50898,5.04859 -3.63295,6.55395 -9.30698,6.59639 -1.23789,0.009 -5.39799,2.41636 -9.24467,5.34911 -3.84666,2.93276 -7.99938,5.70208 -9.22824,6.15406 -1.29984,0.47807 -7.38031,-0.96944 -14.53832,-3.46098 l -12.304,-4.28274 -16.48166,1.09697 c -16.30187,1.08501 -16.66095,1.17377 -32.91764,8.13708 l -16.43597,7.04011 -13.60886,13.73608 -13.60886,13.73606 z"
       id="path71" />
    <path
       style="opacity:1;fill:#87d0df;fill-opacity:1;stroke:#382d89;stroke-width:4.93049;stroke-linecap:round;stroke-dasharray:none;stroke-opacity:1"
       d="m 970.07346,615.16033 c -10.5081,-4.94544 -22.85739,-11.06357 -27.44288,-13.59584 -4.58548,-2.53227 -10.13228,-4.63939 -12.32622,-4.68249 -2.19393,-0.0431 -15.29209,2.29072 -29.10701,5.18625 l -25.11804,5.26461 -15.55849,-15.44215 -15.55848,-15.44214 -36.06067,-11.05501 -36.06066,-11.05501 -8.20844,2.07156 c -7.71819,1.94784 -8.49062,2.47336 -12.93315,8.79902 -3.28233,4.67365 -5.21265,9.17341 -6.32299,14.73949 l -1.59827,8.01204 -23.36523,0.39078 c -22.52169,0.37667 -69.73858,-1.0748 -63.42544,-1.94973 5.32068,-0.73739 15.83805,-17.01172 19.96521,-30.8937 1.90004,-6.39088 3.45461,-14.32245 3.45461,-17.62571 0,-3.30326 0.24621,-6.00593 0.54714,-6.00593 0.30093,0 8.7598,2.72546 18.79748,6.05657 21.46485,7.12335 33.3679,12.31131 36.62256,15.96201 4.33561,4.86317 13.14585,2.58344 21.93501,-5.67589 l 3.32856,-3.12792 18.24232,0.83602 c 10.03328,0.45981 19.07434,0.85885 20.09126,0.88675 1.01691,0.0279 5.73169,-1.18287 10.47728,-2.6906 6.94492,-2.20648 11.75475,-2.76679 24.65244,-2.8718 21.78374,-0.17738 24.49258,1.12643 46.66569,22.46087 19.32713,18.59611 26.44856,22.78857 42.58573,25.07067 8.11382,1.14744 13.29039,1.03439 28.13995,-0.61456 21.0474,-2.33717 25.79637,-1.77708 35.18831,4.1501 3.5357,2.23136 8.70437,5.35489 11.48593,6.94119 5.98033,3.41054 22.33153,7.80652 29.03693,7.80652 2.6033,0 4.7333,0.45037 4.7333,1.00082 0,0.8784 -41.55228,16.47591 -43.14178,16.19417 -0.33898,-0.0601 -9.21385,-4.15552 -19.72196,-9.10096 z"
       id="path72" />
    <path
       style="opacity:1;fill:#87d0df;fill-opacity:1;stroke:#382d89;stroke-width:4.93049;stroke-linecap:round;stroke-dasharray:none;stroke-opacity:1"
       d="m 628.63719,689.74811 c -2.3728,-1.93549 -8.26328,-4.69224 -13.08997,-6.12611 -4.82667,-1.43387 -10.09613,-3.63602 -11.7099,-4.89367 -5.77001,-4.49669 -11.8107,-6.84032 -28.93841,-11.22731 -16.11599,-4.12786 -17.66702,-4.78211 -21.39041,-9.02283 -2.20797,-2.51474 -4.51044,-4.57225 -5.11658,-4.57225 -0.60614,0 -3.73808,1.88769 -6.95989,4.19486 -8.55512,6.12646 -21.94236,9.88475 -31.39897,8.81485 -4.11417,-0.46546 -9.64461,-1.71228 -12.28986,-2.7707 -4.45335,-1.78188 -4.92522,-1.76621 -6.37133,0.21148 -1.34172,1.8349 -4.57709,2.23078 -22.96058,2.80942 l -21.39878,0.67355 -5.64033,-6.40196 -5.64033,-6.40197 -8.62835,1.25975 c -4.74559,0.69286 -11.29955,1.27074 -14.56434,1.28417 -3.26479,0.0134 -6.91533,0.54854 -8.11231,1.18915 -1.64118,0.87833 -3.97026,0.0976 -9.47179,-3.17493 -4.0125,-2.38681 -8.01207,-5.26833 -8.88792,-6.40338 -0.9058,-1.17384 -3.45972,-2.12069 -5.92281,-2.19584 -3.13001,-0.0955 -5.5074,-1.27296 -8.57667,-4.24782 -4.89744,-4.74678 -5.25811,-7.3774 -1.69714,-12.37833 2.7726,-3.89376 5.16774,-4.32132 12.27654,-2.19147 3.79397,1.1367 5.89188,0.993 11.56807,-0.79238 5.14953,-1.61972 9.01587,-1.98645 15.026,-1.42521 7.53688,0.7038 8.67827,0.46062 16.62767,-3.54263 5.73405,-2.88762 9.48483,-4.05999 11.42849,-3.57216 4.46128,1.11971 102.95782,-32.19005 106.17267,-35.90569 4.74631,-5.48566 10.58691,-5.63893 39.0198,-1.02399 14.25251,2.31333 26.33435,3.94605 26.84854,3.62826 0.51417,-0.31778 9.84013,1.12275 20.72433,3.20119 l 19.78945,3.77898 4.35134,11.50835 c 4.08176,10.79542 4.28163,11.99042 3.22618,19.28965 -0.61884,4.27971 -1.13631,12.68099 -1.14994,18.66952 -0.0374,16.41744 -5.59635,36.57883 -12.68041,45.98948 -4.81689,6.39888 -8.26767,6.82073 -14.46206,1.76797 z"
       id="path73" />
    <path
       style="opacity:1;fill:#87d0df;fill-opacity:1;stroke:#382d89;stroke-width:4.93049;stroke-linecap:round;stroke-dasharray:none;stroke-opacity:1"
       d="m 476.93357,590.66878 c -21.49139,-11.90932 -43.27899,-32.86252 -51.06516,-49.10952 l -4.29637,-8.96504 3.61795,-3.74864 c 2.50245,-2.59284 4.44495,-6.77265 6.30019,-13.55654 2.59342,-9.48315 2.63661,-10.66673 1.30445,-35.74603 -0.75778,-14.26598 -1.37759,-28.41102 -1.37737,-31.43342 l 4.2e-4,-5.49529 5.23864,5.02741 c 2.88125,2.76507 12.72653,9.34514 21.8784,14.62238 13.1968,7.60968 19.57289,10.44435 30.81555,13.69995 20.8053,6.0247 30.29189,5.80483 56.08494,-1.29986 10.84707,-2.98783 24.96286,-7.58954 31.36841,-10.22604 l 11.64647,-4.79363 9.30811,-12.63566 c 8.96711,-12.17278 9.84892,-12.96932 24.07074,-21.74342 8.11944,-5.00927 14.89552,-8.97486 15.05795,-8.81243 0.16244,0.16244 -1.8886,16.69289 -4.55785,36.73434 -4.83436,36.29762 -4.84564,36.47906 -2.9064,46.76087 1.24834,6.61864 3.81083,14.0872 7.14235,20.81685 7.23818,14.62107 6.59258,17.98844 -6.75293,35.22201 -10.37383,13.39613 -19.93636,22.744 -23.22745,22.70605 -1.09096,-0.0126 -12.73048,-1.89278 -25.86562,-4.17822 -23.23013,-4.04191 -24.07136,-4.10225 -30.81555,-2.21064 -3.81341,1.06959 -8.93105,3.53103 -11.37254,5.46986 -3.04523,2.41829 -11.67627,5.82881 -27.48821,10.86187 -12.67703,4.03519 -23.43709,7.30734 -23.91124,7.27144 -0.47415,-0.0359 -5.0632,-2.3933 -10.19788,-5.23865 z"
       id="path74" />
    <path
       style="opacity:1;fill:#87d0df;fill-opacity:1;stroke:#382d89;stroke-width:4.93049;stroke-linecap:round;stroke-dasharray:none;stroke-opacity:1"
       d="m 505.37499,474.31976 c -14.37528,-2.42702 -27.52006,-7.55035 -44.71179,-17.42694 -16.56159,-9.51457 -19.13577,-11.47632 -28.43037,-21.66635 -16.61841,-18.21941 -23.04501,-30.76132 -25.33642,-49.44562 -1.77593,-14.48095 -1.90637,-13.62151 2.33407,-15.37796 2.35871,-0.97701 3.69787,-2.42099 3.69787,-3.98731 0,-2.02502 -0.6457,-2.36083 -3.68249,-1.91512 -4.28974,0.6296 -4.35294,0.41633 -5.55627,-18.75001 -0.40435,-6.44045 -1.61939,-17.53404 -2.70008,-24.65244 -1.31401,-8.65522 -2.01671,-22.33375 -2.12134,-41.29283 -0.13749,-24.91585 -0.44031,-29.00703 -2.49965,-33.77141 -2.08302,-4.81919 -2.16671,-6.05097 -0.7537,-11.0936 0.87422,-3.11988 1.70222,-7.61387 1.84,-9.98667 0.13778,-2.37279 0.99616,-8.87655 1.9075,-14.4528 1.49255,-9.1324 1.43419,-11.1142 -0.58809,-19.96853 l -2.2451,-9.82991 3.36952,-9.23863 c 1.85324,-5.08125 4.1816,-9.9126 5.17415,-10.73634 0.99255,-0.82375 1.5287,-2.21678 1.19145,-3.09564 -0.33725,-0.87885 4.32022,-8.2949 10.34993,-16.4801 6.02971,-8.18521 11.32217,-16.01346 11.76101,-17.39612 0.66254,-2.08749 12.53425,-10.97052 14.66153,-10.97052 0.35413,0 1.56068,1.80271 2.68122,4.00602 1.12054,2.20331 2.20139,4.19439 2.4019,4.42462 0.2005,0.23022 3.59671,-1.76751 7.54712,-4.43941 9.60729,-6.49799 13.73665,-6.59098 17.30564,-0.38971 2.64795,4.60092 2.78462,4.66214 12.17938,5.45629 22.39144,1.89277 29.32541,-0.10392 34.79518,-10.01953 3.30149,-5.98496 6.36328,-6.67908 9.35061,-2.11984 1.39333,2.12649 3.13851,3.08156 5.63089,3.08156 3.09537,0 3.96258,0.79306 6.06539,5.5468 1.34948,3.05074 2.9008,5.53413 3.44738,5.51864 0.54658,-0.0155 4.87352,-1.02075 9.61543,-2.23393 8.32589,-2.13012 8.68624,-2.38071 10.50536,-7.30526 1.47746,-3.99965 2.27644,-4.85115 3.70458,-3.94805 1.00146,0.63328 4.03957,1.17756 6.75133,1.2095 5.11803,0.0603 5.02423,0.41797 -1.1261,4.29385 -1.49144,0.9399 -1.76615,2.36159 -1.15675,5.9866 0.78724,4.68277 0.8657,4.74226 5.23889,3.97211 2.44184,-0.43003 6.99985,-1.11237 10.12894,-1.51633 l 5.68925,-0.73447 0.82224,4.38298 c 1.0748,5.72911 6.65097,15.64311 8.79855,15.64311 6.56013,0 15.14215,-3.09893 19.10459,-6.89857 l 4.35782,-4.17879 7.42553,7.69576 c 10.05926,10.42538 10.29234,10.79904 11.54765,18.51193 0.87733,5.39053 0.38646,11.31994 -2.4221,29.2569 l -3.52244,22.4962 2.78453,6.31034 c 1.5315,3.47069 3.12988,8.04915 3.55195,10.17436 0.42208,2.12522 2.13134,5.8739 3.79837,8.33041 3.97527,5.85787 4.99615,17.13476 4.97762,54.98347 -0.0159,32.5018 -0.4321,35.74603 -4.58556,35.74603 -1.54634,0 -3.43381,0.62227 -4.19437,1.38283 -2.26675,2.26674 -0.34289,4.78028 3.65882,4.78028 h 3.73793 l -0.68096,13.867 c -0.84075,17.1208 -4.43517,34.77973 -10.27729,50.49094 l -4.45153,11.97151 -18.05736,11.25188 c -17.99948,11.21582 -18.08495,11.29077 -26.6723,23.38952 l -8.61494,12.13765 -12.94253,5.06246 c -19.48144,7.62017 -47.15595,14.84765 -56.07788,14.64533 -4.07118,-0.0923 -8.78885,-0.40198 -10.48371,-0.68814 z m 20.95458,-94.08735 c 17.18213,-1.79213 32.15836,-4.98456 32.94009,-7.02173 1.31858,-3.43613 -1.67434,-3.78708 -11.98552,-1.40543 -6.04661,1.39662 -17.5603,2.72419 -27.2266,3.13931 -13.98862,0.60074 -17.81622,0.36492 -23.22236,-1.4307 -4.41264,-1.46565 -6.87444,-1.7486 -7.73409,-0.88896 -2.95736,2.95737 2.75588,6.11076 13.80866,7.62164 9.75277,1.33316 10.50692,1.33271 23.41982,-0.0141 z m -38.21128,-10.31495 c 13.07467,-2.96984 18.86359,-3.78056 21.56274,-3.01979 7.3384,2.06838 18.1348,1.18474 25.09113,-2.05362 3.62651,-1.68824 7.71335,-3.06951 9.08186,-3.06951 1.36851,0 7.27625,2.14965 13.12829,4.77702 12.448,5.58871 17.27104,6.81579 22.37952,5.69378 4.40946,-0.96848 11.06408,-6.24338 11.06408,-8.77013 0,-3.41498 -3.77669,-3.31899 -7.4383,0.18904 -4.87793,4.67335 -9.46921,4.30653 -23.13911,-1.84869 -13.03181,-5.86791 -18.24849,-6.22817 -27.54158,-1.902 -7.16517,3.33556 -12.39733,3.7806 -21.59925,1.83719 -5.19552,-1.09728 -8.60167,-0.66355 -26.89339,3.42457 -16.53312,3.69508 -21.03049,5.12796 -21.35311,6.80321 -0.6013,3.12228 4.71908,2.69489 25.65712,-2.06107 z m 38.20622,-36.60729 c 5.66208,-1.21431 6.46513,-1.81085 8.1685,-6.06799 2.30256,-5.75467 3.85998,-6.46387 8.86821,-4.0383 2.12963,1.0314 4.73943,1.54242 5.79957,1.13561 3.23639,-1.24192 -0.0754,-5.43739 -5.59827,-7.09209 -6.37486,-1.90996 -10.36349,-0.17952 -13.17477,5.71581 -2.09687,4.39718 -7.76142,7.36336 -8.69772,4.55445 -1.96007,-5.88019 -10.31216,-10.11751 -19.94242,-10.11751 -2.85501,0 -3.76835,0.5569 -3.76835,2.2977 0,1.7746 1.21216,2.46384 5.32434,3.02748 8.80188,1.20643 11.93237,2.85741 11.93237,6.29297 0,1.67794 0.97069,3.61619 2.15709,4.3072 2.67395,1.55743 1.58921,1.55929 8.93145,-0.0153 z m -33.27574,-4.32188 c 0,-1.08389 -1.66403,-3.52515 -3.69786,-5.42503 -5.78482,-5.40383 -4.76026,-12.36261 3.40095,-23.09908 2.85163,-3.75147 3.07019,-7.71647 0.42534,-7.71647 -1.61383,0 -8.30244,8.26284 -10.5888,13.08099 -1.02621,2.16259 -1.86584,6.74091 -1.86584,10.17406 0,5.2243 0.62377,6.95253 3.82555,10.59916 3.98677,4.54068 8.50066,5.80785 8.50066,2.38637 z m 69.02683,-4.19241 c 4.25034,-4.25034 2.41971,-14.29822 -4.64142,-25.47563 -6.03399,-9.55149 -10.08233,-5.63875 -4.21052,4.0695 6.85126,11.3276 7.65289,18.94089 1.99434,18.94089 -2.04861,0 -3.38908,2.07656 -2.38706,3.69786 1.28702,2.08244 6.64384,1.3682 9.24466,-1.23262 z m -52.30777,-51.15381 c 1.30604,-2.02014 1.29815,-3.31139 -0.0437,-7.15168 -2.38195,-6.81707 -8.01264,-14.4192 -10.6799,-14.4192 -3.37311,0 -2.82906,2.6604 2.01657,9.86097 4.65261,6.91375 5.38941,9.86098 2.46524,9.86098 -1.90696,0 -2.52006,2.61585 -0.97519,4.16074 1.53146,1.53146 5.56827,0.23835 7.21696,-2.31181 z m 31.3532,-0.61631 c 0,-1.35589 -0.55468,-2.46524 -1.23262,-2.46524 -1.84243,0 -1.4868,-6.86657 0.61631,-11.90003 2.49541,-5.97234 2.36849,-9.05455 -0.37282,-9.05455 -1.54625,0 -2.8337,1.78011 -4.23452,5.85496 -3.45848,10.0603 -3.80741,13.68511 -1.6363,16.99864 2.44655,3.7339 6.85995,4.09819 6.85995,0.56622 z m -103.14602,-7.18821 c 7.81538,-5.29413 9.46675,-5.64078 9.46675,-1.98726 0,3.69868 3.80295,5.4776 11.70991,5.4776 8.41901,0 11.70991,-1.72347 11.70991,-6.1326 0,-3.34651 0.39083,-3.72837 3.81584,-3.72837 2.09871,0 5.36496,0.91508 7.25833,2.03353 3.63852,2.14932 7.97009,1.48019 7.11055,-1.09842 -1.26504,-3.79513 -8.06877,-5.90873 -21.49272,-6.6768 -11.12106,-0.63629 -14.6669,-0.38467 -20.1907,1.43282 -11.27397,3.70946 -19.37969,10.32448 -16.35608,13.34809 1.19859,1.19859 1.33834,1.14507 6.96821,-2.66859 z m 152.32601,-0.34868 c 2.87453,-1.00207 4.13332,-2.33617 4.65218,-4.93049 0.86887,-4.34427 1.69625,-4.37117 12.67167,-0.41212 4.79464,1.72952 9.26513,2.80616 9.93444,2.3925 2.83281,-1.75078 0.79334,-4.28581 -5.27447,-6.55607 -11.49671,-4.30148 -17.05529,-5.33584 -29.36945,-5.4652 -10.6159,-0.11151 -13.13813,0.30219 -20.905,3.42888 -8.8179,3.54981 -11.2474,5.79458 -8.85774,8.18424 0.8654,0.8654 3.1574,0.4106 7.25125,-1.43886 10.12294,-4.57321 12.7653,-5.09849 12.7653,-2.53764 0,1.21713 1.14962,3.67447 2.55471,5.46075 2.84209,3.61314 7.77066,4.24674 14.57711,1.87401 z M 419.09146,242.82206 c 9.63287,-13.27249 11.20464,-14.50235 18.57363,-14.53326 3.91283,-0.0164 9.6405,1.07758 13.78269,2.63249 3.89817,1.46331 10.27699,3.84003 14.17516,5.28159 5.11144,1.89024 11.07267,2.79442 21.38049,3.24292 l 14.29293,0.62188 2.10242,-8.3698 c 2.1331,-8.49188 1.69071,-10.36556 -2.46101,-10.42337 -0.74561,-0.0104 -8.98005,-2.51493 -18.29875,-5.56567 -18.45686,-6.04238 -23.83164,-6.59167 -36.12879,-3.69231 -23.49724,5.54008 -34.29024,14.53397 -37.83572,31.52877 -1.04899,5.02821 -1.90771,9.62929 -1.90826,10.22464 -0.002,2.09123 8.05727,-5.06737 12.32521,-10.94788 z m 218.17408,1.20632 c 0,-0.3559 -1.90179,-4.37733 -4.22619,-8.93651 -5.56888,-10.92301 -14.94274,-18.5474 -27.39702,-22.28382 -12.81588,-3.84491 -31.62129,-3.66939 -49.08987,0.45818 -12.79607,3.02352 -25.29241,8.14496 -25.29241,10.36573 0,2.85637 5.44186,14.88038 6.73459,14.88038 0.80409,0 5.30321,-1.30264 9.99807,-2.89476 4.69485,-1.59211 13.30677,-3.27837 19.1376,-3.74724 5.83082,-0.46887 14.9318,-1.88416 20.2244,-3.14512 8.59802,-2.04847 10.16012,-2.10615 14.66724,-0.54162 5.7321,1.98976 17.21458,7.89699 25.31578,13.02385 4.92012,3.1137 9.92781,4.53661 9.92781,2.82093 z"
       id="path75" />
    <ellipse
       style="opacity:1;fill:#87d0df;fill-opacity:1;stroke:#382d89;stroke-width:4;stroke-linecap:round;stroke-dasharray:none;stroke-opacity:1"
       id="path76"
       cx="583.26129"
       cy="333.88647"
       rx="1.3096608"
       ry="1.5407774" />
    <path
       style="opacity:1;fill:#87d0df;fill-opacity:1;stroke:#382d89;stroke-width:4;stroke-linecap:round;stroke-dasharray:none;stroke-opacity:1"
       d="m 575.01813,321.71433 22.1872,11.7099 15.40777,18.48933"
       id="path77" />
    <path
       style="opacity:1;fill:#87d0df;fill-opacity:1;stroke:#382d89;stroke-width:4;stroke-linecap:round;stroke-dasharray:none;stroke-opacity:1"
       d="m 621.85777,340.81997 -0.61631,22.18719 -6.16311,16.02409"
       id="path78" />
    <path
       style="opacity:1;fill:#87d0df;fill-opacity:1;stroke:#382d89;stroke-width:4;stroke-linecap:round;stroke-dasharray:none;stroke-opacity:1"
       d="m 466.5474,328.49375 -20.95457,17.87301 -5.5468,14.79147"
       id="path79" />
    <path
       style="opacity:1;fill:#87d0df;fill-opacity:1;stroke:#382d89;stroke-width:4;stroke-linecap:round;stroke-dasharray:none;stroke-opacity:1"
       d="m 542.35365,623.09039 -39.4439,14.79146 -64.09634,11.0936"
       id="path80" />
    <path
       style="opacity:1;fill:#87d0df;fill-opacity:1;stroke:#382d89;stroke-width:4;stroke-linecap:round;stroke-dasharray:none;stroke-opacity:1"
       d="m 518.93384,608.29893 -28.35031,3.08155 -94.29558,25.26875 -12.32622,1.23262 v 9.24467"
       id="path81" />
    <path
       style="opacity:1;fill:#87d0df;fill-opacity:1;stroke:#382d89;stroke-width:4;stroke-linecap:round;stroke-dasharray:none;stroke-opacity:1"
       d="m 503.7821,705.99222 10.45914,13.94552 -6.10116,61.88327 -3.48638,33.12062 -7.84436,8.71596 -12.20234,1.74319"
       id="path82" />
    <path
       style="opacity:1;fill:#87d0df;fill-opacity:1;stroke:#382d89;stroke-width:4;stroke-linecap:round;stroke-dasharray:none;stroke-opacity:1"
       d="m 283.50305,734.64267 -3.69787,23.41982 40.67652,131.89055"
       id="path83" />
    <path
       style="opacity:1;fill:#87d0df;fill-opacity:1;stroke:#382d89;stroke-width:4;stroke-linecap:round;stroke-dasharray:none;stroke-opacity:1"
       d="M 125.72744,738.34054 269.9442,852.97438"
       id="path84" />
    <path
       style="opacity:1;fill:#87d0df;fill-opacity:1;stroke:#382d89;stroke-width:4;stroke-linecap:round;stroke-dasharray:none;stroke-opacity:1"
       d="m 377.18231,889.95304 -28.3503,23.41982 1.23262,43.14176 14.79146,44.37438 36.97866,18.4893 23.41982,11.0936 22.18719,-9.8609"
       id="path85" />
    <path
       style="opacity:1;fill:#87d0df;fill-opacity:1;stroke:#382d89;stroke-width:4;stroke-linecap:round;stroke-dasharray:none;stroke-opacity:1"
       d="m 751.89938,574.40182 19.72195,33.28079 -9.86097,25.88507 6.16311,40.67652 -6.16311,28.3503 -18.48933,20.95458 -14.79147,30.81555"
       id="path86" />
    <path
       style="opacity:1;fill:#87d0df;fill-opacity:1;stroke:#382d89;stroke-width:4;stroke-linecap:round;stroke-dasharray:none;stroke-opacity:1"
       d="m 790.11066,822.15883 -4.93049,205.84787"
       id="path87" />
    <path
       style="opacity:1;fill:#87d0df;fill-opacity:1;stroke:#382d89;stroke-width:4;stroke-linecap:round;stroke-dasharray:none;stroke-opacity:1"
       d="M 623.7067,709.99024 586.72804,962.67773"
       id="path88" />
    <path
       style="opacity:1;fill:#87d0df;fill-opacity:1;stroke:#382d89;stroke-width:4;stroke-linecap:round;stroke-dasharray:none;stroke-opacity:1"
       d="M 740.80578,883.78993 705.05975,1045.2634"
       id="path89" />
    <path
       style="opacity:1;fill:#87d0df;fill-opacity:1;stroke:#382d89;stroke-width:4;stroke-linecap:round;stroke-dasharray:none;stroke-opacity:1"
       d="m 107.23811,841.88078 c 0,0 56.70061,45.60701 99.84238,43.14177"
       id="path90" />
    <path
       style="opacity:1;fill:#87d0df;fill-opacity:1;stroke:#382d89;stroke-width:4;stroke-linecap:round;stroke-dasharray:none;stroke-opacity:1"
       d="m 215.70884,930.62956 -77.65518,54.23537"
       id="path91" />
    <path
       style="opacity:1;fill:#87d0df;fill-opacity:1;stroke:#382d89;stroke-width:4;stroke-linecap:round;stroke-dasharray:none;stroke-opacity:1"
       d="M 187.35853,936.79267 140.5189,970.07346"
       id="path92" />
    <path
       style="opacity:1;fill:#87d0df;fill-opacity:1;stroke:#382d89;stroke-width:4;stroke-linecap:round;stroke-dasharray:none;stroke-opacity:1"
       d="M 119.56433,984.86493 101.075,1042.7982"
       id="path93" />
    <path
       style="opacity:1;fill:#87d0df;fill-opacity:1;stroke:#382d89;stroke-width:4;stroke-linecap:round;stroke-dasharray:none;stroke-opacity:1"
       d="m 894.88353,883.78993 50.5375,35.74603"
       id="path94" />
  </g>
</svg>
